<?xml version="1.0" encoding="UTF-8" standalone="no"?>
<!DOCTYPE svg PUBLIC "-//W3C//DTD SVG 1.1//EN" "http://www.w3.org/Graphics/SVG/1.1/DTD/svg11.dtd">
<svg width="100%" height="100%" viewBox="0 0 120 40" version="1.1" xmlns="http://www.w3.org/2000/svg" xmlns:xlink="http://www.w3.org/1999/xlink" xml:space="preserve" xmlns:serif="http://www.serif.com/" style="fill-rule:evenodd;clip-rule:evenodd;stroke-linejoin:round;stroke-miterlimit:2;">
    <g>
        <g>
            <g>
                <path d="M110.135,0L9.535,0C9.168,0 8.806,0 8.44,0.002C8.134,0.004 7.83,0.01 7.521,0.015C6.85,0.023 6.18,0.082 5.517,0.191C4.856,0.304 4.215,0.515 3.616,0.818C3.019,1.124 2.472,1.522 1.998,1.997C1.52,2.471 1.122,3.018 0.819,3.618C0.515,4.217 0.305,4.859 0.194,5.521C0.083,6.183 0.023,6.853 0.015,7.523C0.006,7.83 0.005,8.138 0,8.444L0,31.559C0.005,31.869 0.006,32.17 0.015,32.481C0.023,33.151 0.083,33.821 0.194,34.482C0.304,35.145 0.515,35.788 0.819,36.387C1.122,36.985 1.52,37.53 1.998,38.001C2.471,38.478 3.017,38.876 3.616,39.18C4.215,39.484 4.855,39.697 5.517,39.81C6.18,39.919 6.85,39.978 7.521,39.987C7.83,39.994 8.134,39.998 8.44,39.998C8.806,40 9.168,40 9.535,40L110.135,40C110.494,40 110.859,40 111.219,39.998C111.523,39.998 111.836,39.994 112.141,39.987C112.811,39.979 113.479,39.92 114.141,39.81C114.804,39.696 115.448,39.483 116.049,39.18C116.647,38.876 117.194,38.478 117.666,38.001C118.142,37.528 118.541,36.983 118.848,36.387C119.15,35.787 119.358,35.145 119.467,34.482C119.578,33.821 119.64,33.151 119.652,32.481C119.656,32.17 119.656,31.869 119.656,31.559C119.664,31.195 119.664,30.834 119.664,30.465L119.664,9.536C119.664,9.17 119.664,8.807 119.656,8.444C119.656,8.138 119.656,7.83 119.652,7.523C119.64,6.852 119.578,6.183 119.467,5.521C119.358,4.859 119.149,4.217 118.848,3.618C118.23,2.415 117.251,1.436 116.049,0.818C115.448,0.516 114.804,0.304 114.141,0.191C113.48,0.081 112.811,0.022 112.141,0.015C111.836,0.01 111.523,0.004 111.219,0.002C110.859,0 110.494,0 110.135,0L110.135,0Z" style="fill-rule:nonzero;"/>
                <path d="M8.445,39.125C8.14,39.125 7.843,39.121 7.541,39.114C6.914,39.106 6.29,39.052 5.671,38.951C5.095,38.852 4.537,38.667 4.015,38.403C3.498,38.142 3.026,37.798 2.618,37.387C2.204,36.98 1.859,36.508 1.597,35.99C1.333,35.469 1.149,34.91 1.054,34.333C0.951,33.713 0.896,33.086 0.888,32.458C0.881,32.247 0.873,31.545 0.873,31.545L0.873,8.444C0.873,8.444 0.882,7.753 0.888,7.55C0.895,6.922 0.951,6.297 1.053,5.678C1.149,5.099 1.332,4.539 1.597,4.016C1.857,3.498 2.2,3.026 2.612,2.618C3.023,2.206 3.496,1.861 4.014,1.595C4.535,1.332 5.092,1.149 5.667,1.051C6.288,0.95 6.915,0.895 7.543,0.887L8.445,0.875L111.214,0.875L112.127,0.888C112.75,0.895 113.371,0.949 113.985,1.05C114.566,1.149 115.13,1.334 115.656,1.598C116.694,2.133 117.539,2.979 118.071,4.018C118.332,4.538 118.512,5.094 118.606,5.667C118.71,6.291 118.768,6.922 118.78,7.554C118.783,7.837 118.783,8.142 118.783,8.444C118.791,8.819 118.791,9.176 118.791,9.536L118.791,30.465C118.791,30.828 118.791,31.183 118.783,31.54C118.783,31.865 118.783,32.163 118.779,32.47C118.768,33.091 118.71,33.71 118.608,34.323C118.515,34.904 118.333,35.468 118.068,35.993C117.805,36.506 117.462,36.973 117.053,37.379C116.644,37.793 116.172,38.138 115.653,38.401C115.128,38.667 114.566,38.853 113.985,38.951C113.367,39.052 112.742,39.107 112.116,39.114C111.823,39.121 111.517,39.125 111.219,39.125L110.135,39.127L8.445,39.125Z" style="fill-rule:nonzero;"/>
            </g>
            <g id="_Group_">
                <g id="_Group_2_" serif:id="_Group_2">
                    <g id="_Group_3_" serif:id="_Group_3">
                        <path id="_Path_" d="M24.769,20.301C24.791,18.606 25.682,17.036 27.125,16.149C26.21,14.842 24.729,14.041 23.134,13.991C21.455,13.815 19.827,14.996 18.971,14.996C18.099,14.996 16.782,14.008 15.363,14.038C13.498,14.098 11.797,15.135 10.89,16.766C8.956,20.114 10.399,25.035 12.251,27.742C13.178,29.067 14.261,30.547 15.679,30.495C17.066,30.437 17.584,29.61 19.258,29.61C20.917,29.61 21.403,30.495 22.849,30.462C24.338,30.437 25.275,29.13 26.17,27.792C26.836,26.848 27.348,25.804 27.688,24.7C25.924,23.954 24.771,22.216 24.769,20.301Z" style="fill:white;fill-rule:nonzero;"/>
                        <path id="_Path_2_" serif:id="_Path_2" d="M22.037,12.211C22.848,11.237 23.249,9.984 23.152,8.72C21.912,8.85 20.766,9.443 19.944,10.38C19.132,11.304 18.721,12.514 18.8,13.741C20.056,13.754 21.25,13.189 22.037,12.211Z" style="fill:white;fill-rule:nonzero;"/>
                    </g>
                </g>
                <g>
                    <path d="M42.302,27.14L37.569,27.14L36.432,30.496L34.427,30.496L38.911,18.078L40.994,18.078L45.477,30.496L43.438,30.496L42.302,27.14ZM38.059,25.591L41.811,25.591L39.961,20.144L39.91,20.144L38.059,25.591Z" style="fill:white;fill-rule:nonzero;"/>
                    <path d="M55.16,25.97C55.16,28.783 53.654,30.591 51.381,30.591C50.209,30.652 49.099,30.035 48.533,29.007L48.49,29.007L48.49,33.491L46.631,33.491L46.631,21.442L48.43,21.442L48.43,22.948L48.464,22.948C49.056,21.926 50.166,21.31 51.347,21.348C53.645,21.348 55.16,23.164 55.16,25.97ZM53.25,25.97C53.25,24.137 52.302,22.932 50.857,22.932C49.437,22.932 48.482,24.162 48.482,25.97C48.482,27.794 49.437,29.016 50.857,29.016C52.302,29.016 53.25,27.819 53.25,25.97Z" style="fill:white;fill-rule:nonzero;"/>
                    <path d="M65.125,25.97C65.125,28.783 63.619,30.591 61.346,30.591C60.174,30.652 59.064,30.035 58.498,29.007L58.455,29.007L58.455,33.491L56.596,33.491L56.596,21.442L58.395,21.442L58.395,22.948L58.429,22.948C59.021,21.926 60.131,21.31 61.312,21.348C63.61,21.348 65.125,23.164 65.125,25.97ZM63.214,25.97C63.214,24.137 62.267,22.932 60.822,22.932C59.402,22.932 58.447,24.162 58.447,25.97C58.447,27.794 59.402,29.016 60.822,29.016C62.267,29.016 63.214,27.819 63.214,25.97L63.214,25.97Z" style="fill:white;fill-rule:nonzero;"/>
                    <path d="M71.71,27.036C71.848,28.268 73.044,29.076 74.679,29.076C76.246,29.076 77.373,28.268 77.373,27.157C77.373,26.193 76.693,25.616 75.084,25.221L73.474,24.833C71.194,24.282 70.135,23.216 70.135,21.485C70.135,19.343 72.002,17.871 74.654,17.871C77.278,17.871 79.077,19.343 79.137,21.485L77.261,21.485C77.149,20.246 76.125,19.498 74.627,19.498C73.13,19.498 72.106,20.255 72.106,21.356C72.106,22.234 72.76,22.751 74.361,23.146L75.729,23.482C78.277,24.085 79.335,25.108 79.335,26.925C79.335,29.248 77.485,30.703 74.542,30.703C71.788,30.703 69.928,29.282 69.808,27.036L71.71,27.036Z" style="fill:white;fill-rule:nonzero;"/>
                    <path d="M83.346,19.3L83.346,21.442L85.068,21.442L85.068,22.914L83.346,22.914L83.346,27.905C83.346,28.681 83.691,29.042 84.448,29.042C84.652,29.038 84.856,29.024 85.059,28.999L85.059,30.462C84.719,30.525 84.373,30.554 84.027,30.548C82.194,30.548 81.479,29.859 81.479,28.103L81.479,22.914L80.163,22.914L80.163,21.442L81.479,21.442L81.479,19.3L83.346,19.3Z" style="fill:white;fill-rule:nonzero;"/>
                    <path d="M86.065,25.97C86.065,23.121 87.743,21.331 90.359,21.331C92.984,21.331 94.654,23.121 94.654,25.97C94.654,28.826 92.993,30.608 90.359,30.608C87.726,30.608 86.065,28.826 86.065,25.97ZM92.76,25.97C92.76,24.016 91.865,22.862 90.359,22.862C88.853,22.862 87.959,24.024 87.959,25.97C87.959,27.932 88.853,29.076 90.359,29.076C91.865,29.076 92.76,27.932 92.76,25.97L92.76,25.97Z" style="fill:white;fill-rule:nonzero;"/>
                    <path d="M96.186,21.442L97.959,21.442L97.959,22.983L98.002,22.983C98.248,21.995 99.161,21.309 100.179,21.348C100.393,21.347 100.607,21.37 100.816,21.417L100.816,23.155C100.546,23.073 100.264,23.035 99.981,23.043C99.956,23.042 99.93,23.041 99.905,23.041C98.878,23.041 98.032,23.887 98.032,24.914C98.032,24.985 98.036,25.056 98.044,25.126L98.044,30.496L96.186,30.496L96.186,21.442Z" style="fill:white;fill-rule:nonzero;"/>
                    <path d="M109.384,27.837C109.134,29.48 107.534,30.608 105.486,30.608C102.852,30.608 101.217,28.844 101.217,26.013C101.217,23.173 102.861,21.331 105.408,21.331C107.913,21.331 109.488,23.052 109.488,25.797L109.488,26.434L103.093,26.434L103.093,26.546C103.087,26.615 103.084,26.684 103.084,26.754C103.084,28.047 104.149,29.112 105.442,29.112C105.471,29.112 105.5,29.111 105.529,29.11C106.428,29.195 107.282,28.675 107.62,27.837L109.384,27.837ZM103.102,25.135L107.628,25.135C107.631,25.094 107.632,25.054 107.632,25.014C107.632,23.819 106.649,22.836 105.455,22.836C105.439,22.836 105.423,22.837 105.408,22.837C105.403,22.837 105.399,22.837 105.394,22.837C104.137,22.837 103.102,23.872 103.102,25.129C103.102,25.131 103.102,25.133 103.102,25.135L103.102,25.135Z" style="fill:white;fill-rule:nonzero;"/>
                </g>
            </g>
        </g>
        <g id="_Group_4_" serif:id="_Group_4">
            <g>
                <path d="M35.428,11.716C35.428,9.781 36.457,8.586 38.115,8.586C39.348,8.525 40.434,9.43 40.597,10.654L39.674,10.654C39.515,9.931 38.855,9.421 38.115,9.45C37.044,9.45 36.374,10.323 36.374,11.716C36.374,13.106 37.044,13.978 38.119,13.978C38.831,14.031 39.487,13.568 39.674,12.878L40.597,12.878C40.411,14.073 39.324,14.934 38.119,14.842C36.461,14.842 35.428,13.647 35.428,11.716Z" style="fill:white;fill-rule:nonzero;"/>
                <path d="M41.61,12.444C41.604,12.377 41.601,12.309 41.601,12.241C41.601,11.071 42.564,10.108 43.734,10.108C44.904,10.108 45.867,11.071 45.867,12.241C45.867,12.309 45.864,12.377 45.857,12.444C45.864,12.513 45.867,12.582 45.867,12.651C45.867,13.822 44.904,14.785 43.734,14.785C42.563,14.785 41.6,13.822 41.6,12.651C41.6,12.582 41.604,12.513 41.61,12.444ZM44.943,12.444C44.943,11.468 44.505,10.897 43.735,10.897C42.963,10.897 42.528,11.468 42.528,12.444C42.528,13.428 42.963,13.995 43.735,13.995C44.505,13.995 44.943,13.424 44.943,12.444L44.943,12.444Z" style="fill:white;fill-rule:nonzero;"/>
                <path d="M47.05,10.195L47.905,10.195L47.905,10.91L47.972,10.91C48.202,10.385 48.744,10.061 49.315,10.108C49.352,10.105 49.389,10.104 49.425,10.104C50.229,10.104 50.89,10.765 50.89,11.568C50.89,11.64 50.885,11.712 50.874,11.783L50.874,14.698L49.985,14.698L49.985,12.006C49.985,11.282 49.671,10.922 49.014,10.922C48.998,10.922 48.982,10.921 48.966,10.921C48.399,10.921 47.933,11.388 47.933,11.954C47.933,11.991 47.935,12.027 47.938,12.063L47.938,14.698L47.05,14.698L47.05,10.195Z" style="fill:white;fill-rule:nonzero;"/>
                <path d="M53.895,10.108C54.907,10.108 55.569,10.579 55.656,11.373L54.804,11.373C54.722,11.042 54.398,10.832 53.895,10.832C53.398,10.832 53.022,11.067 53.022,11.418C53.022,11.687 53.249,11.857 53.737,11.969L54.485,12.142C55.342,12.341 55.743,12.709 55.743,13.371C55.743,14.218 54.953,14.785 53.878,14.785C52.807,14.785 52.108,14.301 52.029,13.503L52.919,13.503C53.076,13.892 53.483,14.126 53.898,14.065C54.452,14.065 54.846,13.817 54.846,13.457C54.846,13.188 54.635,13.015 54.184,12.907L53.398,12.725C52.542,12.522 52.146,12.138 52.146,11.468C52.146,10.67 52.877,10.108 53.895,10.108Z" style="fill:white;fill-rule:nonzero;"/>
                <path d="M56.865,9.442L57.903,8.02L58.945,8.02L57.783,9.442L56.865,9.442ZM56.957,10.195L57.842,10.195L57.842,14.698L56.957,14.698L56.957,10.195Z" style="fill:white;fill-rule:nonzero;"/>
                <path d="M59.226,15.148L60.135,15.148C60.21,15.475 60.586,15.686 61.186,15.686C61.926,15.686 62.364,15.334 62.364,14.739L62.364,13.875L62.298,13.875C62.014,14.368 61.476,14.66 60.908,14.631C59.759,14.631 59.048,13.743 59.048,12.395C59.048,11.022 59.767,10.12 60.917,10.12C61.499,10.1 62.045,10.407 62.331,10.914L62.401,10.914L62.401,10.195L63.253,10.195L63.253,14.735C63.253,15.765 62.446,16.418 61.173,16.418C60.048,16.418 59.32,15.914 59.226,15.148ZM62.381,12.39C62.381,11.493 61.917,10.918 61.16,10.918C60.396,10.918 59.966,11.493 59.966,12.39C59.966,13.288 60.396,13.862 61.16,13.862C61.922,13.862 62.381,13.292 62.381,12.39Z" style="fill:white;fill-rule:nonzero;"/>
                <path d="M68.465,14.698L67.609,14.698L67.609,13.982L67.539,13.982C67.306,14.513 66.756,14.838 66.178,14.785C66.144,14.787 66.109,14.788 66.075,14.788C65.272,14.788 64.612,14.128 64.612,13.326C64.612,13.256 64.617,13.187 64.627,13.118L64.627,10.195L65.517,10.195L65.517,12.887C65.517,13.614 65.81,13.962 66.463,13.962C66.496,13.965 66.528,13.966 66.56,13.966C67.121,13.966 67.582,13.505 67.582,12.944C67.582,12.906 67.58,12.867 67.576,12.829L67.576,10.195L68.465,10.195L68.465,14.698Z" style="fill:white;fill-rule:nonzero;"/>
                <path d="M73.689,13.482C73.441,14.328 72.614,14.88 71.738,14.785C71.72,14.785 71.702,14.785 71.684,14.785C70.562,14.785 69.639,13.862 69.639,12.74C69.639,12.647 69.645,12.553 69.658,12.46C69.646,12.369 69.639,12.277 69.639,12.185C69.639,11.045 70.577,10.108 71.716,10.108C71.722,10.108 71.728,10.108 71.734,10.108C72.987,10.108 73.743,10.964 73.743,12.378L73.743,12.688L70.563,12.688L70.563,12.738C70.56,12.771 70.559,12.804 70.559,12.838C70.559,13.491 71.096,14.028 71.749,14.028C71.753,14.028 71.758,14.028 71.762,14.028C72.196,14.08 72.621,13.864 72.834,13.482L73.689,13.482ZM70.563,12.031L72.837,12.031C72.839,12.004 72.84,11.977 72.84,11.95C72.84,11.354 72.35,10.864 71.754,10.864C71.746,10.864 71.737,10.864 71.729,10.864C71.724,10.864 71.719,10.864 71.715,10.864C71.083,10.864 70.563,11.384 70.563,12.016C70.563,12.021 70.563,12.026 70.563,12.031Z" style="fill:white;fill-rule:nonzero;"/>
                <rect x="74.977" y="8.437" width="0.889" height="6.261" style="fill:white;fill-rule:nonzero;"/>
                <path d="M77.101,12.444C77.095,12.377 77.091,12.309 77.091,12.241C77.091,11.071 78.054,10.108 79.225,10.108C80.395,10.108 81.358,11.071 81.358,12.241C81.358,12.309 81.355,12.377 81.348,12.444C81.355,12.513 81.358,12.582 81.358,12.651C81.358,13.822 80.395,14.785 79.225,14.785C78.054,14.785 77.091,13.822 77.091,12.651C77.091,12.582 77.094,12.513 77.101,12.444ZM80.434,12.444C80.434,11.468 79.996,10.897 79.226,10.897C78.454,10.897 78.019,11.468 78.019,12.444C78.019,13.428 78.454,13.995 79.226,13.995C79.996,13.995 80.434,13.424 80.434,12.444L80.434,12.444Z" style="fill:white;fill-rule:nonzero;"/>
                <path d="M88.792,13.482C88.543,14.328 87.717,14.88 86.84,14.785C86.822,14.785 86.804,14.785 86.786,14.785C85.664,14.785 84.741,13.862 84.741,12.74C84.741,12.647 84.747,12.553 84.76,12.46C84.748,12.369 84.742,12.277 84.742,12.185C84.742,11.045 85.679,10.108 86.819,10.108C86.825,10.108 86.831,10.108 86.836,10.108C88.089,10.108 88.845,10.964 88.845,12.378L88.845,12.688L85.666,12.688L85.666,12.738C85.663,12.771 85.661,12.804 85.661,12.838C85.661,13.491 86.199,14.028 86.852,14.028C86.856,14.028 86.86,14.028 86.865,14.028C87.299,14.08 87.723,13.864 87.936,13.482L88.792,13.482ZM85.666,12.031L87.94,12.031C87.942,12.004 87.943,11.977 87.943,11.95C87.943,11.354 87.453,10.864 86.857,10.864C86.848,10.864 86.84,10.864 86.832,10.864C86.827,10.864 86.822,10.864 86.817,10.864C86.185,10.864 85.665,11.384 85.665,12.016C85.665,12.021 85.665,12.026 85.666,12.031L85.666,12.031Z" style="fill:white;fill-rule:nonzero;"/>
                <path d="M90.039,10.195L90.894,10.195L90.894,10.91L90.96,10.91C91.191,10.385 91.732,10.061 92.304,10.108C92.341,10.105 92.377,10.104 92.414,10.104C93.217,10.104 93.879,10.765 93.879,11.568C93.879,11.64 93.873,11.712 93.863,11.783L93.863,14.698L92.974,14.698L92.974,12.006C92.974,11.282 92.66,10.922 92.002,10.922C91.986,10.922 91.97,10.921 91.954,10.921C91.388,10.921 90.921,11.388 90.921,11.954C90.921,11.991 90.923,12.027 90.927,12.063L90.927,14.698L90.039,14.698L90.039,10.195Z" style="fill:white;fill-rule:nonzero;"/>
                <path d="M101.488,13.482C101.24,14.328 100.413,14.88 99.537,14.785C99.519,14.785 99.501,14.785 99.483,14.785C98.361,14.785 97.437,13.862 97.437,12.74C97.437,12.647 97.444,12.553 97.457,12.46C97.444,12.369 97.438,12.277 97.438,12.185C97.438,11.045 98.376,10.108 99.515,10.108C99.521,10.108 99.527,10.108 99.533,10.108C100.786,10.108 101.542,10.964 101.542,12.378L101.542,12.688L98.362,12.688L98.362,12.738C98.359,12.771 98.358,12.804 98.358,12.838C98.358,13.491 98.895,14.028 99.548,14.028C99.552,14.028 99.557,14.028 99.561,14.028C99.995,14.08 100.419,13.864 100.632,13.482L101.488,13.482ZM98.362,12.031L100.636,12.031C100.638,12.004 100.639,11.977 100.639,11.95C100.639,11.354 100.149,10.864 99.553,10.864C99.544,10.864 99.536,10.864 99.528,10.864C99.523,10.864 99.518,10.864 99.513,10.864C98.882,10.864 98.362,11.384 98.362,12.016C98.362,12.021 98.362,12.026 98.362,12.031L98.362,12.031Z" style="fill:white;fill-rule:nonzero;"/>
                <rect x="102.776" y="8.437" width="0.889" height="6.261" style="fill:white;fill-rule:nonzero;"/>
            </g>
        </g>
    </g>
</svg>
