<?xml version="1.0" encoding="UTF-8"?>
<svg width="211px" height="228px" viewBox="0 0 211 228" version="1.1" xmlns="http://www.w3.org/2000/svg" xmlns:xlink="http://www.w3.org/1999/xlink">
    <title>cubigram en cube simple</title>
    <defs>
        <linearGradient x1="50%" y1="79.5928779%" x2="50%" y2="45.744397%" id="linearGradient-1">
            <stop stop-color="#7B3B59" offset="0%"></stop>
            <stop stop-color="#834061" offset="100%"></stop>
        </linearGradient>
        <linearGradient x1="40.9654447%" y1="77.3648508%" x2="70.7616555%" y2="-12.8853677%" id="linearGradient-2">
            <stop stop-color="#733753" offset="0%"></stop>
            <stop stop-color="#793E57" offset="100%"></stop>
        </linearGradient>
    </defs>
    <g id="Page-1" stroke="none" stroke-width="1" fill="none" fill-rule="evenodd">
        <g id="cubigram-en-cube-simple" fill-rule="nonzero">
            <polygon id="Path" fill="url(#linearGradient-1)" points="105.584 0.087 211 47.135 211 180.721 105.584 227.913 0 180.721 0 47.135"></polygon>
            <polygon id="Path" fill="#8A4365" points="211 47.135 105.584 0.087 0 47.135 105.584 94.183"></polygon>
            <polygon id="Path" fill="url(#linearGradient-2)" points="105.584 94.183 105.584 227.913 211 180.865 211 47.135"></polygon>
            <path d="M135.14721,127.9653 L110.60321,138.91924 C108.940781,139.661083 107.87015,141.31127 107.87015,143.13171 L107.87015,174.82259 C107.87015,175.773756 108.351714,176.660246 109.149656,177.177938 C109.947599,177.695629 110.95339,177.774115 111.82198,177.38647 L135.61983,166.76556 C137.149559,166.082812 138.13474,164.564296 138.13474,162.88912 L138.13474,129.90356 C138.13474,129.184481 137.770715,128.514288 137.167473,128.122915 C136.564231,127.731541 135.803851,127.672219 135.14721,127.9653 L135.14721,127.9653 Z M128.84521,160.07488 L128.82448,148.49524 L124.51459,159.9367 L122.98699,160.60757 L118.69713,153.19411 L118.69713,164.5347 L115.51688,165.93241 L115.51688,146.618 L118.32059,145.38542 L123.80295,154.97869 L129.20103,140.60432 L131.9847,139.38072 L132.02616,158.67713 L128.84521,160.07488 Z" id="Shape" fill="#FF8889"></path>
            <path d="M170.36389,112.24772 L145.81989,123.20172 C144.157492,123.9436 143.08683,125.593764 143.08683,127.41419 L143.08683,159.105 C143.08683,160.056168 143.568388,160.942662 144.366332,161.460355 C145.164276,161.978047 146.170071,162.056531 147.03866,161.66888 L170.83647,151.048 C172.366242,150.365356 173.35138,148.846833 173.35138,147.17166 L173.35138,114.186 C173.35138,113.466941 172.987326,112.796776 172.384105,112.405407 C171.780884,112.014038 171.020532,111.954689 170.36389,112.24772 L170.36389,112.24772 Z M164.96806,143.842 L153.62678,148.82622 L153.62678,129.51181 L164.69584,124.64712 L164.69584,128.23363 L156.99566,131.61771 L156.99566,135.81222 L163.79559,132.82403 L163.79559,136.30069 L156.99566,139.28887 L156.99566,143.75836 L164.96806,140.25476 L164.96806,143.842 Z" id="Shape" fill="#FF8889"></path>
            <path d="M197.06425,125.43821 L190.26363,128.4264 L188.96679,133.13563 L185.4929,134.66185 L192.0213,112.47885 L195.36945,111.00721 L201.91858,127.44321 L198.36178,129.00674 L197.06425,125.43821 Z M195.99679,122.51221 L193.67465,116.13927 L191.35181,124.55454 L195.99679,122.51221 Z" id="Shape" fill="#E7E9EA"></path>
            <polygon id="Path" fill="#E7E9EA" points="130.48823 184.4923 130.48823 203.80736 127.09794 205.29696 127.09794 197.37776 120.44379 200.30169 120.44379 208.22089 117.05419 209.71049 117.05419 190.39612 120.44379 188.90652 120.44379 196.52172 127.09794 193.5971 127.09794 185.9819"></polygon>
            <polygon id="Path" fill="#E7E9EA" points="125.466 117.10585 122.0764 118.59545 122.0764 99.28108 125.466 97.79148"></polygon>
            <polygon id="Path" fill="#E7E9EA" points="165.49108 95.51562 165.49108 99.1581 152.68508 104.78624 152.68508 101.88857 160.71967 85.58173 152.85228 89.03904 152.85228 85.398 165.17741 79.98127 165.17741 82.87894 157.16218 99.17611"></polygon>
            <path d="M190.21112,87.84446 C189.315621,87.9413969 188.411144,87.7785374 187.6057,87.37533 L188.75745,83.50278 C189.451123,83.8491463 190.221324,84.0138842 190.99599,83.98158 C191.891618,83.9628186 192.77416,83.7627951 193.59036,83.39358 C194.412599,83.0711903 195.144946,82.5552296 195.72527,81.88947 C196.157477,81.3849688 196.401402,80.7462233 196.41549,80.08205 C196.455012,79.711417 196.300672,79.3465923 196.00716,79.11685 C195.69429,78.9219095 195.329344,78.827177 194.96116,78.84533 C194.383147,78.8615601 193.806606,78.9120822 193.23458,78.99663 C192.327126,79.1271251 191.410156,79.1795971 190.49374,79.15347 C189.78966,79.1197495 189.129208,78.8024823 188.66283,78.27394 C188.077663,77.4813641 187.805568,76.5007176 187.89869,75.51994 C187.904789,74.3675596 188.139633,73.2278583 188.5896,72.16694 C189.076762,71.0146011 189.784114,69.968403 190.672,69.087 C191.648573,68.1122596 192.802664,67.3334151 194.072,66.79249 C194.94128,66.3995729 195.865608,66.1421049 196.81284,66.02904 C197.601899,65.9199245 198.405623,66.0019067 199.1564,66.26809 L198.1104,70.12198 C196.771038,69.7035939 195.32393,69.7984093 194.05061,70.38798 C193.230047,70.7098273 192.506047,71.2373021 191.94818,71.91972 C191.517284,72.4597377 191.277909,73.1275545 191.26763,73.81834 C191.26763,74.4816067 191.529253,74.8588433 192.0525,74.95005 C192.851842,75.034195 193.659225,74.9999734 194.44858,74.84849 C195.35613,74.7190594 196.273045,74.667052 197.18941,74.69303 C197.888226,74.7238483 198.546558,75.0295468 199.02101,75.54354 C199.60847,76.3246345 199.880966,77.2979629 199.78447,78.27054 C199.775879,79.416339 199.537414,80.5487604 199.0832,81.60072 C198.588549,82.756775 197.874577,83.8060298 196.98076,84.69047 C195.999476,85.6658227 194.841996,86.4460755 193.56976,86.98981 C192.510411,87.4734809 191.372806,87.7629595 190.21112,87.84446 L190.21112,87.84446 Z" id="Path" fill="#E7E9EA"></path>
            <polygon id="Path" fill="#E7E9EA" points="166.924 168.1219 160.58422 190.2227 157.23607 191.69365 150.917 175.15674 154.57882 173.54761 159.03587 185.38427 163.55511 169.60252"></polygon>
            <path d="M189.58377,176.352 C188.348402,176.012624 187.309902,175.174613 186.71719,174.03883 C185.973887,172.60022 185.617011,170.993204 185.68152,169.3752 C185.683449,167.469683 186.034467,165.580643 186.71719,163.80163 C187.376608,162.03269 188.347456,160.396123 189.58377,158.96941 C190.706239,157.641772 192.110939,156.581465 193.69538,155.86585 C194.962167,155.225861 196.412296,155.047036 197.79661,155.3601 C199.028743,155.705773 200.065013,156.541981 200.6632,157.67327 C201.413578,159.1079 201.774261,160.714356 201.7092,162.33207 C201.706964,164.240078 201.35235,166.131264 200.6632,167.91047 C199.999584,169.677401 199.029153,171.31326 197.79661,172.74269 C196.678288,174.069288 195.276867,175.128383 193.69538,175.84211 C192.424985,176.48223 190.972043,176.662412 189.58377,176.352 L189.58377,176.352 Z M196.03894,170.21811 C196.75639,169.352544 197.31264,168.365221 197.68123,167.30311 C198.078899,166.191779 198.280873,165.019914 198.27818,163.83958 C198.316998,162.826685 198.112288,161.819256 197.68123,160.90184 C197.360278,160.205575 196.765995,159.672794 196.03894,159.42951 C195.254367,159.219524 194.419904,159.306365 193.69538,159.6734 C192.783966,160.089041 191.981658,160.710875 191.35181,161.4898 C190.634238,162.3554 190.077758,163.342702 189.70881,164.4048 C189.311754,165.516029 189.110023,166.687597 189.11255,167.86763 C189.073803,168.880671 189.27826,169.888258 189.70881,170.80607 C190.030437,171.502101 190.62481,172.034732 191.35181,172.2784 C192.136389,172.488353 192.970844,172.401513 193.69538,172.03451 C194.606679,171.618689 195.408945,170.996888 196.03894,170.21812 L196.03894,170.21811 Z" id="Shape" fill="#E7E9EA"></path>
            <polygon id="Path" fill="#FF9E9F" points="61.67367 175.89463 55.25858 192.34034 51.87105 190.82518 45.47668 168.65044 49.18203 170.30793 53.69159 186.12077 58.26472 174.36977"></polygon>
            <path d="M24.87791,170.16284 C25.3609029,171.210749 25.6067232,172.352323 25.59784,173.50615 C25.59784,175.198883 25.0932467,176.27463 24.08406,176.73339 C23.0739533,177.19215 21.6025467,176.989253 19.66984,176.1247 L12.00489,172.6971 L12.00489,153.382 L19.24562,156.621 C20.8928325,157.30439 22.3289272,158.413113 23.40697,159.83373 C24.3435516,161.078945 24.8520573,162.593794 24.8565,164.15191 C24.8913626,164.944188 24.7123741,165.731248 24.33831,166.43053 C24.0312153,166.983168 23.503747,167.379274 22.8874,167.5201 C23.7334777,168.247388 24.4124656,169.14886 24.87791,170.16284 L24.87791,170.16284 Z M15.41384,158.273 L15.41384,162.8254 L18.82278,164.35023 C19.4013363,164.698673 20.0954876,164.800472 20.74973,164.63282 C21.1863967,164.442153 21.4049533,163.96957 21.4054,163.21507 C21.4169525,162.496917 21.1859451,161.795858 20.74973,161.22525 C20.2369387,160.595736 19.5743942,160.104945 18.82278,159.79783 L15.41384,158.273 Z M21.4586,172.979 C21.91668,172.79798 22.1460633,172.302827 22.14675,171.49354 C22.14675,169.8934 21.2363633,168.685923 19.41559,167.87111 L15.41384,166.08165 L15.41384,170.85514 L19.41559,172.6446 C20.029616,173.010922 20.7598262,173.130443 21.4586,172.979 L21.4586,172.979 Z" id="Shape" fill="#FF9E9F"></path>
            <path d="M97.17051,212.96329 C96.7313256,213.498001 96.1080825,213.849177 95.4232,213.94784 C94.6488375,214.031229 93.8667559,213.891973 93.16877,213.54642 C92.0212395,213.019281 91.0024397,212.248282 90.18335,211.28714 C89.0118448,209.850623 87.9902046,208.298148 87.13435,206.65391 C85.7449158,205.789265 84.5279063,204.67441 83.54507,203.36591 C82.4853158,201.978117 81.6561853,200.428578 81.08958,198.77691 C80.5106094,197.130073 80.213497,195.397393 80.21074,193.65175 C80.1450215,192.036599 80.5065558,190.432694 81.25885,189.00193 C81.8638661,187.869946 82.9165298,187.04414 84.16,186.726 C85.5704311,186.435382 87.0377954,186.634245 88.32,187.28978 C89.9180874,188.023225 91.3348901,189.099863 92.4696,190.44309 C93.7141903,191.884219 94.6961356,193.532642 95.37073,195.31331 C96.0666657,197.095795 96.4255724,198.992008 96.4292,200.90553 C96.5394999,202.76953 96.0295611,204.617602 94.97898,206.16128 C94.0924985,207.383179 92.6428823,208.067088 91.13614,207.97428 C91.4193667,208.510487 91.7639044,209.011989 92.16283,209.46871 C92.4615286,209.803788 92.8254631,210.074389 93.23236,210.26395 C94.027044,210.692302 95.0087068,210.547887 95.64636,209.90882 L97.17051,212.96329 Z M84.28644,198.67529 C84.6614177,199.745385 85.2243521,200.739976 85.94877,201.61229 C86.5880082,202.400645 87.3990886,203.032351 88.31997,203.45909 C89.0507913,203.835582 89.8936968,203.933085 90.69117,203.73338 C91.4231078,203.502955 92.0254935,202.977215 92.3528,202.28317 C92.7892892,201.369819 92.9965587,200.363835 92.95666,199.35233 C92.9589242,198.169185 92.7545683,196.994733 92.3528,195.88189 C91.9784995,194.811634 91.4157592,193.816967 90.69117,192.94489 C90.0520962,192.156192 89.2409874,191.524224 88.31997,191.09739 C87.5889809,190.721397 86.7461782,190.624151 85.94877,190.82379 C85.2166214,191.054144 84.6139906,191.579881 84.28644,192.27401 C83.8508503,193.187643 83.6438522,194.19346 83.68327,195.20485 C83.6813921,196.387902 83.8854961,197.562249 84.28644,198.67529 L84.28644,198.67529 Z" id="Shape" fill="#FF9E9F"></path>
            <path d="M14.821,129.21265 C13.818419,128.406849 12.9314931,127.466916 12.18518,126.4193 L13.34936,123.57414 C14.0035396,124.486352 14.7640617,125.317385 15.61485,126.04967 C16.4005464,126.750715 17.2851876,127.332249 18.24031,127.77556 C18.8894364,128.162359 19.6554116,128.304479 20.40009,128.17629 C20.8799725,127.988096 21.1686424,127.495844 21.0986,126.98516 C21.0944589,126.510876 20.950764,126.048309 20.68544,125.65516 C20.3908255,125.206097 20.0347706,124.800507 19.62765,124.45021 C19.19653,124.074363 18.6140933,123.611697 17.88034,123.06221 C16.9181134,122.346186 15.9925076,121.582221 15.10703,120.77321 C14.3484193,120.049567 13.721414,119.199527 13.25403,118.26107 C12.7241874,117.194486 12.4592253,116.015908 12.48159,114.82518 C12.4388782,113.864186 12.6819512,112.912091 13.1801,112.08918 C13.6572664,111.379494 14.4338397,110.928166 15.28668,110.86488 C16.4788118,110.801376 17.6663664,111.056298 18.72741,111.60347 C20.7301248,112.52388 22.4913503,113.897427 23.87192,115.61558 L22.81348,118.536 C21.71135,117.125641 20.3079975,115.979379 18.706,115.181 C18.0692427,114.792351 17.3054968,114.668823 16.57869,114.83693 C16.0954974,115.075328 15.8185107,115.595655 15.89055,116.12962 C15.9023423,116.820952 16.187829,117.479389 16.6844,117.96053 C17.4336212,118.706169 18.2443983,119.387286 19.10811,119.99664 C20.0703789,120.712891 20.9962033,121.476847 21.88211,122.28564 C22.6357689,123.002698 23.2621244,123.842588 23.73444,124.76946 C24.2663754,125.825713 24.5318023,126.996073 24.50757,128.17846 C24.5485279,129.130512 24.3012238,130.072764 23.798,130.88199 C23.3108286,131.589997 22.5273669,132.037181 21.67,132.09661 C20.474216,132.157356 19.2836265,131.900883 18.21891,131.35319 C16.9949244,130.796177 15.851922,130.076134 14.821,129.21265 L14.821,129.21265 Z" id="Path" fill="#FF9E9F"></path>
            <path d="M85.31313,160.18473 C84.0737541,158.752582 83.0989136,157.111461 82.43413,155.338 C81.7423551,153.546736 81.3870368,151.643203 81.38602,149.723 C81.318262,148.098834 81.6797738,146.485499 82.43413,145.04555 C83.0330739,143.918488 84.0775773,143.094568 85.31313,142.77455 C86.7095605,142.486423 88.1625106,142.683608 89.43164,143.33349 C90.7353093,143.921396 91.9167964,144.749214 92.91451,145.77379 C93.9776453,146.863067 94.8604103,148.114798 95.5296,149.4819 L93.32768,151.1463 C92.5744678,149.44664 91.2582417,148.058673 89.60091,147.2164 C88.8449801,146.824783 87.9746081,146.71412 87.14473,146.90411 C86.4046589,147.124012 85.7928338,147.647931 85.46167,148.34535 C85.0258375,149.258902 84.8188303,150.264779 84.85851,151.27619 C84.8562347,152.4595 85.0603459,153.634141 85.46167,154.74732 C85.8400036,155.822982 86.4102477,156.821127 87.14473,157.69332 C87.8111528,158.498453 88.6507525,159.142737 89.60091,159.57812 C90.8331826,160.283729 92.3920176,160.023056 93.32768,158.95492 L95.5296,162.58772 C94.865813,163.372217 93.925295,163.870812 92.90346,163.97991 C91.6991336,164.072197 90.4922354,163.837547 89.41022,163.30074 C87.8328081,162.574646 86.4341519,161.510909 85.31313,160.18473 Z" id="Path" fill="#FF9E9F"></path>
            <polygon id="Path" fill="#FF9E9F" points="51.98781 86.24155 51.98781 91.346 58.84716 94.41432 58.84716 98.00083 51.98781 94.9332 51.98781 101.96873 48.55745 100.43491 48.55745 81.11984 59.75778 86.12962 59.75778 89.71682"></polygon>
            <polygon id="Path" fill="#FF9E9F" points="16.63122 66.543 20.06159 68.07682 20.06159 87.39188 16.63122 85.85806"></polygon>
            <path d="M90.65662,104.02141 C90.0291996,103.23906 89.2295252,102.612229 88.31997,102.18981 C87.5996103,101.818495 86.7675149,101.726232 85.98331,101.93072 C85.2582466,102.169561 84.6649446,102.698804 84.34517,103.39199 C83.9155975,104.308865 83.7116265,105.315211 83.75029,106.32699 C83.7481431,107.508233 83.9493754,108.681028 84.34517,109.79399 C84.7132938,110.858579 85.2679937,111.849135 85.98331,112.7193 C86.6103911,113.501998 87.410157,114.128897 88.31997,114.5509 C89.0402175,114.922574 89.8724456,115.014853 90.65662,114.80999 C91.3816891,114.571149 91.9749953,114.041901 92.29477,113.34871 C92.724551,112.431924 92.9283038,111.425471 92.88895,110.41371 C92.8916669,109.232711 92.6906604,108.060091 92.29477,106.94742 C91.9266539,105.882613 91.3719535,104.891825 90.65662,104.02141 Z" id="Path" fill="#FF8889"></path>
            <path d="M100.18461,94.48461 L75.64061,83.53077 C74.983987,83.2377244 74.2236451,83.2970516 73.6204232,83.688399 C73.0172013,84.0797465 72.65312,84.7498924 72.65312,85.46894 L72.65312,118.45459 C72.65312,120.129772 73.6382373,121.648312 75.168,122.331 L98.96585,132.95183 C99.8344234,133.339508 100.840218,133.261049 101.638168,132.743371 C102.436117,132.225693 102.91768,131.339205 102.91768,130.38804 L102.91768,98.69724 C102.91768,96.8767593 101.847051,95.2265269 100.18461,94.48461 Z M95.26775,116.596 C94.6729152,117.722889 93.6383128,118.553422 92.40946,118.89051 C91.0259377,119.194818 89.5795871,119.006663 88.31997,118.35851 C86.738656,117.631357 85.3383851,116.562394 84.22011,115.22869 C82.987442,113.793609 82.0196302,112.150877 81.36182,110.37712 C80.6811663,108.595214 80.3311382,106.704128 80.32891,104.79665 C80.2641148,103.181148 80.6200386,101.576515 81.36182,100.13992 C81.9516176,99.008884 82.9882975,98.1766827 84.22011,97.84541 C85.6076039,97.5444714 87.0565204,97.7339502 88.31997,98.38156 C89.8982691,99.1072535 91.2952211,100.175204 92.40946,101.50792 C93.6383098,102.945468 94.6057073,104.587261 95.26775,106.35879 C95.9546041,108.140964 96.3082292,110.034151 96.31102,111.9441 C96.3767046,113.559344 96.0169432,115.163506 95.26775,116.596 Z" id="Shape" fill="#FF8889"></path>
            <path d="M133.37416,77.06636 L108.46723,65.95041 C106.632166,65.1314555 104.535421,65.1314846 102.70038,65.95049 L77.79431,77.06662 C77.2843637,77.2941846 76.9559457,77.8003769 76.9559457,78.358795 C76.9559457,78.9172131 77.2843637,79.4234054 77.79431,79.65097 L102.70107,90.76683 C104.536187,91.5857834 106.632976,91.5857544 108.46807,90.76675 L133.37414,79.65062 C133.884034,79.4230359 134.212413,78.9168746 134.212413,78.3584965 C134.212413,77.8001184 133.88405,77.293952 133.37416,77.06636 L133.37416,77.06636 Z M114.12816,81.59104 C113.203559,82.1228684 112.187389,82.476512 111.13238,82.63362 C109.528385,82.9127627 107.901839,83.0416014 106.2739,83.01846 C104.674304,83.021616 103.076161,82.921917 101.48936,82.71998 C100.230331,82.5808944 98.98763,82.320833 97.77848,81.9434 L99.41801,80.32391 C100.459165,80.6485854 101.52611,80.8838878 102.60725,81.02726 C103.831482,81.2035908 105.066745,81.292253 106.30361,81.29257 C107.32453,81.327762 108.345876,81.2363255 109.34431,81.02035 C109.999983,80.83933 110.327933,80.5982033 110.32816,80.29697 C110.32816,80.07587 110.134243,79.8923167 109.74641,79.74631 C109.263295,79.5773498 108.763804,79.4594828 108.25612,79.39464 C107.649513,79.3062 106.829867,79.20878 105.79718,79.10238 C104.2067,78.9344933 102.905033,78.7663733 101.89218,78.59802 C100.986276,78.4640229 100.106508,78.1908853 99.284,77.78827 C98.6561274,77.5554615 98.2278682,76.9703167 98.19581,76.30144 C98.2488336,75.6755433 98.6206861,75.1211624 99.17967,74.83464 C100.093272,74.30224 101.099884,73.9486479 102.14574,73.79275 C103.744553,73.5130851 105.366104,73.384239 106.98902,73.40791 C108.293599,73.4066767 109.59725,73.4774878 110.89402,73.62002 C112.021259,73.7348925 113.137593,73.9391214 114.23249,74.23078 L112.7422,75.8634 C110.852201,75.3817343 108.909698,75.1366587 106.95929,75.1338 C105.952146,75.0965165 104.944555,75.1945786 103.9635,75.42536 C103.3175,75.6202 102.994617,75.87699 102.99485,76.19573 C102.99485,76.5142433 103.36748,76.7507633 104.11274,76.90529 C104.858227,77.06075 105.995923,77.2134433 107.52583,77.36337 C109.11561,77.53195 110.417277,77.70007 111.43083,77.86773 C112.334955,78.0022927 113.213994,78.2707787 114.03901,78.66435 C114.666541,78.8901167 115.096114,79.4718768 115.1272,80.13806 C115.068237,80.7626815 114.690306,81.3123355 114.12819,81.591 L114.12816,81.59104 Z" id="Shape" fill="#FF8889"></path>
            <polygon id="Path" fill="#FF9E9F" points="64.55061 57.88456 69.37938 57.88456 69.37938 65.42376 79.84251 65.42376 79.84251 67.17591 64.55061 67.17591"></polygon>
            <polygon id="Path" fill="#FF9E9F" points="34.86846 47.961 32.06613 49.262 32.06613 51.6111 27.26713 51.6111 27.26713 42.31976 32.06613 42.31976 32.06613 46.66005 41.30705 42.31976 46.672 42.31976 38.028 46.46107 47.17909 51.61107 41.54541 51.61107"></polygon>
            <path d="M98.2986,30.10336 L73.39184,18.98736 C71.5567137,18.168449 69.4599408,18.1684817 67.62484,18.98745 L42.71857,30.10362 C42.2087124,30.33128 41.8804377,30.8374723 41.8804377,31.3958484 C41.8804377,31.9542245 42.2088607,32.460371 42.71875,32.68796 L67.62551,43.80383 C69.4606269,44.6227853 71.5574187,44.6227526 73.39251,43.80374 L98.29875,32.68762 C98.8086287,32.4600024 99.1369384,31.9538195 99.1369384,31.3954413 C99.1369384,30.8370632 98.8085052,30.3309184 98.2986,30.10336 L98.2986,30.10336 Z M80.6944,36.16445 L75.50705,36.16445 L70.91665,29.87233 L66.177,36.16445 L61.02005,36.16445 L54.16485,26.87245 L59.17256,26.87245 L63.88179,33.40361 L68.80107,26.87245 L73.27125,26.87245 L78.04125,33.45681 L82.89972,26.87245 L87.52052,26.87245 L80.6944,36.16445 Z" id="Shape" fill="#FF8889"></path>
            <polygon id="Path" fill="#FF8889" points="102.643 16.858 109.26 16.858 105.951 13.3"></polygon>
            <path d="M133.37381,14.449 L108.46705,3.33313 C106.632022,2.51405038 104.535238,2.51405038 102.70021,3.33313 L77.794,14.44934 C77.284103,14.6769005 76.9557211,15.1830535 76.9557211,15.741425 C76.9557211,16.2997965 77.284103,16.8059495 77.794,17.03351 L102.70094,28.14951 C104.535992,28.9685065 106.632753,28.9684737 108.46778,28.14942 L133.37385,17.03329 C133.883838,16.805772 134.212287,16.2995694 134.212287,15.741132 C134.212287,15.1826946 133.883805,14.6765022 133.37381,14.449 Z M112.62823,20.4815 L110.78005,18.4903 L101.09212,18.4903 L99.24462,20.4815 L94.29633,20.4815 L103.59666,11.19015 L108.366,11.19015 L117.69535,20.4815 L112.62823,20.4815 Z" id="Shape" fill="#FF8889"></path>
            <polygon id="Path" fill="#FF9E9F" points="138.89936 28.5983 138.89936 31.05379 148.55758 31.05379 148.55758 32.77968 138.89936 32.77968 138.89936 36.16445 134.0706 36.16445 134.0706 26.87245 149.83922 26.87245 149.83922 28.5983"></polygon>
            <path d="M133.37416,45.75772 L108.46723,34.64172 C106.632123,33.8227209 104.535314,33.82275 102.70023,34.6418 L77.79414,45.758 C77.284248,45.985588 76.9558766,46.4917519 76.9558766,47.05013 C76.9558766,47.6085081 77.284248,48.114672 77.79414,48.34226 L102.7009,59.45811 C104.535987,60.2771738 106.632813,60.2771738 108.4679,59.45811 L133.37414,48.34189 C133.883979,48.1142824 134.212313,47.6081496 134.212313,47.0498115 C134.212313,46.4914734 133.883996,45.9853355 133.37416,45.75772 L133.37416,45.75772 Z M114.61117,51.72994 L98.45491,51.72994 L98.45491,42.43721 L114.22423,42.43721 L114.22423,44.1631 L103.254,44.1631 L103.254,46.18056 L112.94193,46.18056 L112.94193,47.85394 L103.254,47.85394 L103.254,50.00405 L114.61117,50.00405 L114.61117,51.72994 Z" id="Shape" fill="#FF8889"></path>
            <path d="M146.20227,62.5026 L150.61373,62.5026 L150.61373,66.2722 C149.332412,66.686539 148.015071,66.9798455 146.679,67.14827 C145.187207,67.3517223 143.683332,67.4537499 142.17773,67.45365 C140.212902,67.4754645 138.252228,67.2681757 136.3354,66.83598 C134.878592,66.5421685 133.495226,65.9600711 132.26663,65.12391 C131.357793,64.6320684 130.791539,63.6817693 130.791539,62.64838 C130.791539,61.6149907 131.357793,60.6646916 132.26663,60.17285 C133.504316,59.3333878 134.89806,58.751175 136.36511,58.46078 C138.302309,58.0287241 140.282863,57.8214656 142.26754,57.84311 C143.935907,57.8296633 145.602059,57.9674873 147.24554,58.25489 C148.548843,58.4685503 149.81406,58.8709708 151.00132,59.44947 L147.90121,60.7242 C146.201594,59.9826992 144.359529,59.6246181 142.5059,59.6754 C141.313061,59.6602876 140.122562,59.7850421 138.95877,60.04711 C138.088767,60.2216892 137.265724,60.57893 136.54404,61.09522 C136.006909,61.4256848 135.679702,62.0111723 135.679702,62.64182 C135.679702,63.2724677 136.006909,63.8579552 136.54404,64.18842 C137.261637,64.7034365 138.078955,65.0627859 138.94357,65.24342 C140.091826,65.5094141 141.267913,65.6363024 142.44648,65.62135 C143.709626,65.6352228 144.970076,65.5016529 146.20226,65.22335 L146.20227,62.5026 Z" id="Path" fill="#FF9E9F"></path>
            <polygon id="Path" fill="#FF9E9F" points="187.32174 42.43721 178.28948 51.72921 173.52013 51.72921 164.51828 42.43721 169.73464 42.43721 176.08341 49.07478 182.52199 42.43721"></polygon>
            <polygon id="Path" fill="#FF9E9F" points="59.88421 146.36793 59.88421 149.95513 48.40821 144.82306 48.40821 125.508 59.60921 130.51709 59.60921 134.10429 51.81716 130.62 51.81716 134.81382 58.69861 137.89113 58.69861 141.36779 51.81716 138.29048 51.81716 142.76066"></polygon>
        </g>
    </g>
</svg>