<svg xmlns="http://www.w3.org/2000/svg" xmlns:xlink="http://www.w3.org/1999/xlink" viewBox="0 0 212 229"><defs><style>.cls-1{fill:#522654;opacity:0.25;}.cls-2{fill:url(#Degradado_sin_nombre_6);}.cls-3{fill:url(#Degradado_sin_nombre_13);}.cls-4{fill:url(#Degradado_sin_nombre_188);}.cls-5{fill:url(#Degradado_sin_nombre_8);}.cls-6{fill:url(#Degradado_sin_nombre_8-2);}.cls-7{fill:url(#Degradado_sin_nombre_188-2);}.cls-8{fill:url(#Degradado_sin_nombre_184);}.cls-9{fill:url(#Degradado_sin_nombre_177);}.cls-10{fill:url(#Degradado_sin_nombre_6-2);}.cls-11{fill:url(#Degradado_sin_nombre_187);}.cls-12{fill:url(#Degradado_sin_nombre_193);}.cls-13{fill:#8a4365;}.cls-14{fill:url(#Degradado_sin_nombre_191);}.cls-15{fill:url(#Degradado_sin_nombre_6-3);}</style><linearGradient id="Degradado_sin_nombre_6" x1="115.90092" y1="42.15324" x2="150.92901" y2="13.49389" gradientUnits="userSpaceOnUse"><stop offset="0" stop-color="#522654"/><stop offset="1" stop-color="#924660"/></linearGradient><linearGradient id="Degradado_sin_nombre_13" x1="130.06596" y1="15.63164" x2="119.46455" y2="44.59158" gradientUnits="userSpaceOnUse"><stop offset="0" stop-color="#b3536a"/><stop offset="1" stop-color="#7c3c5a"/></linearGradient><linearGradient id="Degradado_sin_nombre_188" x1="106.00001" y1="85.04274" x2="106.00001" y2="52.35568" gradientUnits="userSpaceOnUse"><stop offset="0" stop-color="#522654"/><stop offset="1" stop-color="#b3536a"/></linearGradient><linearGradient id="Degradado_sin_nombre_8" x1="106.00008" y1="207.03816" x2="106.00008" y2="-40.56154" gradientUnits="userSpaceOnUse"><stop offset="0" stop-color="#ff8b8c"/><stop offset="1" stop-color="#b3536a"/></linearGradient><linearGradient id="Degradado_sin_nombre_8-2" x1="106" y1="265.31974" x2="106" y2="41.56094" xlink:href="#Degradado_sin_nombre_8"/><linearGradient id="Degradado_sin_nombre_188-2" x1="106.00009" y1="213.37608" x2="106.00009" y2="72.00344" xlink:href="#Degradado_sin_nombre_188"/><linearGradient id="Degradado_sin_nombre_184" x1="80.33295" y1="74.41654" x2="129.66628" y2="191.74987" gradientUnits="userSpaceOnUse"><stop offset="0" stop-color="#522654"/><stop offset="0.99866" stop-color="#773b59"/></linearGradient><linearGradient id="Degradado_sin_nombre_177" x1="168.00623" y1="298.72659" x2="88.10461" y2="88.34342" gradientUnits="userSpaceOnUse"><stop offset="0" stop-color="#ff8889"/><stop offset="0.10943" stop-color="#fa8487"/><stop offset="0.24658" stop-color="#ea7980"/><stop offset="0.39791" stop-color="#d16876"/><stop offset="0.53593" stop-color="#b3536a"/><stop offset="0.71651" stop-color="#d76c79"/><stop offset="0.89713" stop-color="#f48084"/><stop offset="1" stop-color="#ff8889"/></linearGradient><linearGradient id="Degradado_sin_nombre_6-2" x1="105.71394" y1="64.58252" x2="84.81911" y2="30.29357" xlink:href="#Degradado_sin_nombre_6"/><linearGradient id="Degradado_sin_nombre_187" x1="83.25517" y1="23.649" x2="104.71943" y2="69.87972" gradientUnits="userSpaceOnUse"><stop offset="0" stop-color="#ff8889"/><stop offset="1" stop-color="#7c3c5a"/></linearGradient><linearGradient id="Degradado_sin_nombre_193" x1="106.00009" y1="155.29664" x2="106.00009" y2="132.57019" gradientUnits="userSpaceOnUse"><stop offset="0" stop-color="#7b3b59"/><stop offset="1" stop-color="#834061"/></linearGradient><linearGradient id="Degradado_sin_nombre_191" x1="113.07929" y1="156.98958" x2="140.0269" y2="109.39379" gradientUnits="userSpaceOnUse"><stop offset="0" stop-color="#733753"/><stop offset="1" stop-color="#793e57"/></linearGradient><linearGradient id="Degradado_sin_nombre_6-3" x1="119.82294" y1="112.21879" x2="136.50009" y2="112.21879" xlink:href="#Degradado_sin_nombre_6"/></defs><title>cubigram medal illustration</title><g id="plant_5" data-name="plant 5"><polygon class="cls-1" points="106.084 0 0 47.291 0 181.564 106.084 229 212 181.709 212 181.564 212 47.291 106.084 0"/><polygon class="cls-2" points="83.077 63.706 128.923 63.706 155.847 22.219 120.3 6.347 83.077 63.706"/><polygon class="cls-3" points="93.077 63.706 118.923 63.706 148.282 18.841 128.242 9.893 93.077 63.706"/><path class="cls-4" d="M132.10157,56.91254l-.00146-.00067a61.62,61.62,0,0,0-52.19995,0l-.00147.00067a7.99993,7.99993,0,0,0-4.61157,7.24694V97.95782L106,112.31848,136.7129,97.95782V64.15948A8.00012,8.00012,0,0,0,132.10157,56.91254ZM129.21339,93.185,106.0005,104.03949,82.78761,93.185V64.15961a.50492.50492,0,0,1,.28906-.4541,53.99175,53.99175,0,0,1,45.84668,0l.00195.002a.50009.50009,0,0,1,.28809.45215Z"/><path class="cls-5" d="M212.00008,181.70941v-67.8446c-19.91528-3.43177-43.83569-17.731-58.17676-19.38568-17.33325-2-95.33325,12.37371-95.33325,12.37371s-33.31372-2.44635-58.49-7.0849v81.79639L106.08431,229Z"/><path class="cls-6" d="M.00008,181.56433-.00008,164.2868c10.03735-3.984,18.68066-7.434,18.68066-7.434l40.80811,23.49128c18.39062,8.65466,43.709-2.50354,43.709-2.50354,19.70362-20.01917,80.04541-11.951,108.80225-14.26941l.00016,18.13824L106.08431,229Z"/><circle class="cls-7" cx="106.00009" cy="135.46272" r="68.54509"/><circle class="cls-8" cx="106.00009" cy="135.46272" r="58.6734"/><circle class="cls-9" cx="106.00009" cy="135.46272" r="54.03607"/><polygon class="cls-10" points="91.733 6.398 128.923 63.706 83.077 63.706 56.173 22.249 91.733 6.398"/><polygon class="cls-11" points="83.977 9.855 118.923 63.706 93.077 63.706 63.93 18.792 83.977 9.855"/><polygon class="cls-12" points="106 101.857 136.5 116.118 136.5 154.737 106 168.998 75.5 154.737 75.5 116.118 106 101.857"/><polygon class="cls-13" points="136.5 116.118 106 101.857 75.5 116.118 106 130.379 136.5 116.118"/><polygon class="cls-14" points="106 130.379 106 168.998 136.5 154.737 136.5 116.118 106 130.379"/><line class="cls-15" x1="136.50009" y1="116.11773" x2="119.82294" y2="108.31985"/></g></svg>