<svg xmlns="http://www.w3.org/2000/svg" xmlns:xlink="http://www.w3.org/1999/xlink" viewBox="0 0 212 243"><defs><style>.cls-1,.cls-6,.cls-8{fill:#522654;}.cls-1{opacity:0.25;}.cls-2{fill:url(#Degradado_sin_nombre_8);}.cls-3{fill:url(#Degradado_sin_nombre_8-2);}.cls-4{fill:#b3536a;}.cls-5{fill:#7c3c5a;}.cls-6{opacity:0.75;}.cls-7{fill:url(#Degradado_sin_nombre_12);}.cls-8{opacity:0.5;}.cls-9{fill:#fff;}.cls-10{fill:url(#Degradado_sin_nombre_9);}.cls-11{fill:url(#Degradado_sin_nombre_9-2);}.cls-12{fill:url(#Degradado_sin_nombre_12-2);}.cls-13{fill:url(#Degradado_sin_nombre_199);}.cls-14{fill:#1a0726;}.cls-15{fill:url(#Degradado_sin_nombre_193);}.cls-16{fill:#8a4365;}.cls-17{fill:url(#Degradado_sin_nombre_191);}.cls-18{fill:url(#Degradado_sin_nombre_6);}</style><linearGradient id="Degradado_sin_nombre_8" x1="106" y1="155.00234" x2="106" y2="62.0167" gradientUnits="userSpaceOnUse"><stop offset="0" stop-color="#ff8b8c"/><stop offset="1" stop-color="#b3536a"/></linearGradient><linearGradient id="Degradado_sin_nombre_8-2" x1="106" y1="267.42275" x2="106" y2="62.42156" xlink:href="#Degradado_sin_nombre_8"/><linearGradient id="Degradado_sin_nombre_12" x1="92.7569" y1="120.54318" x2="144.25405" y2="170.54041" gradientUnits="userSpaceOnUse"><stop offset="0" stop-color="#522654"/><stop offset="1" stop-color="#7c3c5a"/></linearGradient><linearGradient id="Degradado_sin_nombre_9" x1="206.40311" y1="601.42356" x2="206.40311" y2="479.72584" gradientTransform="matrix(0.994, 0.10941, -0.10941, 0.994, -30.62013, -536.32496)" gradientUnits="userSpaceOnUse"><stop offset="0" stop-color="#ff8889"/><stop offset="0.74156" stop-color="#7c3c5a"/><stop offset="1" stop-color="#ff8889"/></linearGradient><linearGradient id="Degradado_sin_nombre_9-2" x1="197.59427" y1="667.42064" x2="197.59427" y2="627.90852" xlink:href="#Degradado_sin_nombre_9"/><linearGradient id="Degradado_sin_nombre_12-2" x1="183.13604" y1="651.90491" x2="251.65204" y2="693.34991" gradientTransform="matrix(0.994, 0.10941, -0.10941, 0.994, -30.62013, -536.32496)" xlink:href="#Degradado_sin_nombre_12"/><linearGradient id="Degradado_sin_nombre_199" x1="100.18314" y1="13.87817" x2="120.1818" y2="195.86598" gradientUnits="userSpaceOnUse"><stop offset="0" stop-color="#522654"/><stop offset="1" stop-color="#1a0726"/></linearGradient><linearGradient id="Degradado_sin_nombre_193" x1="206.66735" y1="608.02938" x2="206.66735" y2="582.19392" gradientTransform="matrix(0.994, 0.10941, -0.10941, 0.994, -30.62013, -536.32496)" gradientUnits="userSpaceOnUse"><stop offset="0" stop-color="#7b3b59"/><stop offset="1" stop-color="#834061"/></linearGradient><linearGradient id="Degradado_sin_nombre_191" x1="214.71585" y1="609.95416" x2="245.35062" y2="555.84599" gradientTransform="matrix(0.994, 0.10941, -0.10941, 0.994, -30.62013, -536.32496)" gradientUnits="userSpaceOnUse"><stop offset="0" stop-color="#733753"/><stop offset="1" stop-color="#793e57"/></linearGradient><linearGradient id="Degradado_sin_nombre_6" x1="222.38243" y1="559.05824" x2="241.3422" y2="559.05824" gradientTransform="matrix(0.994, 0.10941, -0.10941, 0.994, -30.62013, -536.32496)" gradientUnits="userSpaceOnUse"><stop offset="0" stop-color="#522654"/><stop offset="1" stop-color="#924660"/></linearGradient></defs><title>cubigram play illustration</title><g id="plant_5" data-name="plant 5"><polygon class="cls-1" points="106.084 14.015 0 61.303 0 195.567 106.084 243 212 195.713 212 195.567 212 61.303 106.084 14.015"/><path class="cls-2" d="M212,195.71254V124.61577c-23.51807-4.97044-67.07324,11.52462-82.11572,1.79041-15.4524-9.99934-36.5,9.99933-55,6.86142s-31.5-12.36106-35-11.34855C37.19336,122.69744,16.47949,129.65254,0,130.715v64.8525L106.08423,243Z"/><path class="cls-3" d="M195.38428,163.47055c-2.5,0-115.5,38.93059-141.5,23.32774C33.38647,174.49741,15.99756,176.05877,0,172.559v23.00847L106.08423,243,212,195.71254v-21.2728C204.39038,170.60649,195.38428,163.47055,195.38428,163.47055Z"/><path class="cls-4" d="M70.11034,44.23128c-2.011-.862-12.494,2.7378-14.22684,3.49487a15.109,15.109,0,0,1,.14569-2.9838A10.61619,10.61619,0,0,1,61.58131,41.03c4.20172-1.24095,8.39164-.27649,8.635.15848A11.87775,11.87775,0,0,1,70.11034,44.23128Z"/><path class="cls-5" d="M72.65882,68.22511c-15.785-9.46454-20.73851-17.77086-17.05811-22.19391a9.23912,9.23912,0,0,1,8.36153-3.53332l3.88568-.29863s3.84429-.12219,5.24045.67055Z"/><path class="cls-6" d="M67.84789,42.19914a12.94546,12.94546,0,0,0-2.26554,8.37776c.24187,3.39966-.41254,7.8098-5.10563,8.77342a84.72428,84.72428,0,0,0,11.59735,8.50485L69.94458,42.23725A15.24509,15.24509,0,0,0,67.84789,42.19914Z"/><path class="cls-5" d="M59.04126,111.54634l.19733-3.49476s1.71984-2.90753,4.18628-3.071,1.05326,4.64941,1.05326,4.64941Z"/><path class="cls-6" d="M59.04126,111.54634l.19733-3.49476s1.71984-2.90753,4.18628-3.071,1.05326,4.64941,1.05326,4.64941Z"/><path class="cls-4" d="M60.26027,111.18174c-1.4182-.08239-7.13688,4.03131-7.87418,4.61573,0,0-.02918-4.85228,7.23088-7.87168C62.93827,106.54448,60.26027,111.18174,60.26027,111.18174Z"/><path class="cls-4" d="M61.132,86.79865c-2.17371-.25132-6.54059,2.39079-7.985,3.61145a.13306.13306,0,0,1-.2113-.14614,10.61615,10.61615,0,0,1,4.26018-5.14408c3.6723-2.38988,5.89366-2.286,6.25122-1.93875S61.132,86.79865,61.132,86.79865Z"/><path class="cls-7" d="M100.04438,196.096c2.37769,5.93491,8.4751,14.19571,8.4751,14.19571s6.26123,12.11321,13.94165,25.39664l52.30737-23.35332c-6.11352-35.43655.10254-62.908-1.58251-73.04551-1.87647-11.28966-13.1272-34.63882-21.69532-48.02941l-35.333,81.19793-21.33447-2.299a21.25744,21.25744,0,0,0,.95557,8.59727C96.88081,183.01742,97.1772,188.93914,100.04438,196.096Z"/><path class="cls-6" d="M94.76753,173.88838c.01269.12689.02514.25383.03955.37815.03906.33177.084.65364.13379.96765q.04431.28389.09375.55764c.02929.16155.06177.31761.09375.47415.03564.17681.06665.364.10547.53463q.14134.6174.3042,1.1798c.56689,1.96312,2.08911,12.72791,4.50659,18.11537v.00025c2.5874,5.84653,8.47485,14.19583,8.47485,14.19583s6.26123,12.11322,13.94165,25.39652l13.21167-5.89854c-.91431-8.59587.12818-14.77441,5.59937-13.15782a34.73356,34.73356,0,0,0,4.19091.94159s-18.49633-11.4332-26.1394-21.69583c-4.98242-7.82993-3.22876-16.236-3.166-23.41971l-9.90405-1.04095L94.82319,170.159c-.00342.51656-.18432,1.81671-.16162,2.30007.00293.06549.0044.13256.00806.1975C94.69258,173.08088,94.727,173.48954,94.76753,173.88838Z"/><path class="cls-8" d="M118.91264,127.4671c5.2325,2.726,29.94285,28.91464,33.701,33.10179l-.66137-18.68086c-.07664-2.16483-.1859-4.32874-.35871-6.488-.30946-3.86677-.64721-12.08289,1.60215-15.94355,2.99915-5.14755,3.75429-15.06905,3.5071-19.42016l-1.83494-3.28189-2.64848-4.4036-15.06934,39.673Z"/><path class="cls-5" d="M57.16859,149.20717c-7.01677.00451-11.75314-5.601-6.9458-11.89781l7.11639-2.2772,2.36593-.7054.4,10.65151Z"/><path class="cls-6" d="M57.16854,149.20725l2.9366-4.22888-.4-10.65157-2.36592.70532-5.25646,1.682c4.26248.68633,4.31813,2.6884,2.76559,12.27048A12.27477,12.27477,0,0,0,57.16854,149.20725Z"/><path class="cls-9" d="M60.14414,124.18016c-3.58285.64627-9.05411-.72053-8.46766-5.7922s5.27831-7.54761,5.27831-7.54761l5.39454-1.49733,1.28886,10.02007Z"/><path class="cls-5" d="M60.14414,124.18016c-3.58285.64627-9.05411-.72053-8.46766-5.7922s5.27831-7.54761,5.27831-7.54761l5.39454-1.49733,1.28886,10.02007Z"/><path class="cls-6" d="M60.14412,124.18l3.39064-4.67438-.00764-1.00625-1.17779-9.15631-5.39457,1.49734s3.88282,7.33023.994,13.47712A9.94888,9.94888,0,0,0,60.14412,124.18Z"/><path class="cls-5" d="M62.94978,100.76508c-3.47973-.03523-11.03929-2.74479-10.37836-8.46048s6.99828-6.90006,6.99828-6.90006l3.08937-2.3757s3.15126-2.20539,4.75374-2.30563l-1.06259,8.48371Z"/><path class="cls-6" d="M62.94979,100.76494l3.40047-11.55823,1.06255-8.48347c-1.60247.10011-4.75373,2.30551-4.75373,2.30551l-3.08939,2.37587s.47794,2.16325,2.01691,2.34118c1.66059.192,1.83871,5.93628-3.95493,11.67656A14.01,14.01,0,0,0,62.94979,100.76494Z"/><path class="cls-4" d="M58.90967,134.969a8.81416,8.81416,0,0,1-3.40267,2.50264c-1.11849.40094-2.79174.86011-5.919-.31725-.61149-.23022,6.96167-2.703,8.52089-3.13455S58.90967,134.969,58.90967,134.969Z"/><path class="cls-10" d="M63.96457,166.76257a8.58872,8.58872,0,0,1-7.54572-9.51823L73.61169,8.56117A8.589,8.589,0,0,1,83.13052,1.016l69.544,8.04071a8.58871,8.58871,0,0,1,7.54572,9.51823L144.7818,152.08645"/><polygon class="cls-11" points="73.284 159.617 63.965 166.763 116.95 172.594 113.409 150.04 73.284 159.617"/><path class="cls-12" d="M119.32363,195.87777c-7.73226-12.1519.7553-24.87583-6.02395-33.9807-2.67728-3.59571-4.62366-10.81353-4.62366-10.81353-1.23227-.63195-4.25987-4.082-4.25987-4.082C95.39927,145.959,86.78746,134.358,88.45448,129.8192L104.02,125.09257s2.90959.17325,5.16381.43389,6.36382.18751,9.72888,1.94064c5.2325,2.726,29.94285,28.91464,33.701,33.10179Z"/><path class="cls-8" d="M104.584,147.19048l-.08778-.09839Z"/><path class="cls-8" d="M104.80461,147.43564c-.07471-.08254-.13827-.153-.19318-.21443Q104.69318,147.31256,104.80461,147.43564Z"/><path class="cls-8" d="M106.57047,149.299c-.55537-.55478-1.094-1.12908-1.4937-1.5647.39971.43562.93833,1.00992,1.4937,1.5647Z"/><path class="cls-4" d="M98.396,152.31079s2.518,3.83775,3.65041,4.635c0,0,.92275,7.41852,3.07369,11.3516a11.08617,11.08617,0,0,1,1.13357,3.11976l9.904,1.04094c.03472-3.96529-.44677-7.32275-2.858-10.561-2.6774-3.59569-4.62375-10.8135-4.62375-10.8135a23.4751,23.4751,0,0,1-3.87132-3.64791l.00019.00037-.00019-.00037q-.11143-.12312-.19318-.21443l-.02745-.03073-.08778-.09839-.0331-.03718.03018.03374-.077-.08709C95.39918,145.959,86.78741,134.358,88.45447,129.8192,80.15356,134.02867,90.71574,150.31088,98.396,152.31079Z"/><path class="cls-4" d="M104.601,147.20947l-.00818-.00908Z"/><path class="cls-8" d="M104.41625,147.00156l.077.08709c.02764.03116.05694.06434.0995.11174l.00818.00908q.0852.09516.20365.22617a23.4751,23.4751,0,0,0,3.87132,3.64791s1.94635,7.21781,4.62375,10.8135c2.41125,3.23814,2.89082,6.934,2.85635,10.89916l-.00005.00047c-.06277,7.18372-1.81462,15.25115,3.16768,23.08107,7.6432,10.26268,26.13937,21.69594,26.13937,21.69594l-6.07906-8.37138s-.05769-.03824-.16632-.112A39.20236,39.20236,0,0,1,122.0878,175.1717l.0624-1.66166c.13474-8.62-.751-17.51428-3.58229-18.91041-4.54852-2.24278-10.55891-12.63217-10.55891-12.63217-4.892.72828-15.79753-6.26225-15.40564-9.65127l-4.14888-2.49711v.00012C86.78741,134.358,95.39918,145.959,104.41625,147.00156Z"/><path class="cls-4" d="M104.02,125.09257c-1.34576,3.10756-6.70407,8.52487-8.35146,8.66072s-6.19125-3.19693-7.214-3.93409c-2.7299-1.96761,3.36694-7.42189,7.42957-7.27849A20.04712,20.04712,0,0,1,104.02,125.09257Z"/><path class="cls-8" d="M115.12609,165.34213l-34.119-3.94708a.71786.71786,0,1,0-.16523,1.42618L115.58047,166.84A14.99216,14.99216,0,0,0,115.12609,165.34213Z"/><path class="cls-13" d="M63.854,167.71445a9.54663,9.54663,0,0,1-8.38662-10.58009L72.65984,8.45047A9.54669,9.54669,0,0,1,83.18666.05847l.054.00594,69.54475,8.04044A9.55744,9.55744,0,0,1,161.172,18.68494L145.73336,152.19707l-1.90383-.22084L159.26815,18.4641a7.63124,7.63124,0,0,0-6.70365-8.45555L83.01975,1.96811A7.74045,7.74045,0,0,0,77.40381,3.568a7.58013,7.58013,0,0,0-2.84014,5.10335L57.37119,157.3552a7.62961,7.62961,0,0,0,6.70365,8.45554Z"/><path class="cls-14" d="M116.156,172.79668l.00005-.00047c.0036-.42182-.00227-.83893-.01184-1.25444l-52.07494-5.73164-.20969,1.90493,52.28167,5.7544C116.14615,173.24518,116.15407,173.01929,116.156,172.79668Z"/><polygon class="cls-15" points="114.929 30.28 147.622 50.189 142.818 93.828 106.578 106.149 73.885 86.241 78.689 42.601 114.929 30.28"/><polygon class="cls-16" points="147.622 50.189 114.929 30.28 78.689 42.601 111.381 62.51 147.622 50.189"/><polygon class="cls-17" points="111.381 62.51 106.578 106.149 142.818 93.828 147.622 50.189 111.381 62.51"/><line class="cls-18" x1="147.62163" y1="50.18856" x2="129.74556" y2="39.30286"/></g></svg>