<svg xmlns="http://www.w3.org/2000/svg" xmlns:xlink="http://www.w3.org/1999/xlink" viewBox="0 0 212 229"><defs><style>.cls-1,.cls-10,.cls-11,.cls-12{fill:#522654;}.cls-1{opacity:0.25;}.cls-2{fill:url(#Degradado_sin_nombre_8);}.cls-3{fill:url(#Degradado_sin_nombre_8-2);}.cls-4{fill:url(#Degradado_sin_nombre_11);}.cls-5{fill:url(#Degradado_sin_nombre_193);}.cls-6{fill:#8a4365;}.cls-7{fill:url(#Degradado_sin_nombre_191);}.cls-8{fill:url(#Degradado_sin_nombre_6);}.cls-9{fill:#7c3c5a;}.cls-10,.cls-15{opacity:0.5;}.cls-11{opacity:0.75;}.cls-13{fill:url(#Degradado_sin_nombre_12);}.cls-14{fill:#b3536a;}.cls-16{fill:#773b59;}.cls-17{fill:none;}</style><linearGradient id="Degradado_sin_nombre_8" x1="105.99999" y1="141.33391" x2="105.99999" y2="19.49334" gradientUnits="userSpaceOnUse"><stop offset="0" stop-color="#ff8b8c"/><stop offset="1" stop-color="#b3536a"/></linearGradient><linearGradient id="Degradado_sin_nombre_8-2" x1="105.99999" y1="210.55229" x2="105.99999" y2="84.67573" xlink:href="#Degradado_sin_nombre_8"/><linearGradient id="Degradado_sin_nombre_11" x1="105.96325" y1="207.00712" x2="105.96325" y2="-36.03113" gradientUnits="userSpaceOnUse"><stop offset="0" stop-color="#f3d0d1"/><stop offset="1" stop-color="#f6afb4" stop-opacity="0"/></linearGradient><linearGradient id="Degradado_sin_nombre_193" x1="105.83333" y1="94.33856" x2="105.83333" y2="60.29652" gradientUnits="userSpaceOnUse"><stop offset="0" stop-color="#7b3b59"/><stop offset="1" stop-color="#834061"/></linearGradient><linearGradient id="Degradado_sin_nombre_191" x1="116.43728" y1="96.87443" x2="156.80224" y2="25.58048" gradientUnits="userSpaceOnUse"><stop offset="0" stop-color="#733753"/><stop offset="1" stop-color="#793e57"/></linearGradient><linearGradient id="Degradado_sin_nombre_6" x1="126.53864" y1="29.81207" x2="151.5194" y2="29.81207" gradientUnits="userSpaceOnUse"><stop offset="0" stop-color="#522654"/><stop offset="1" stop-color="#924660"/></linearGradient><linearGradient id="Degradado_sin_nombre_12" x1="106.27616" y1="116.77839" x2="96.51633" y2="175.33733" gradientUnits="userSpaceOnUse"><stop offset="0" stop-color="#522654"/><stop offset="1" stop-color="#7c3c5a"/></linearGradient></defs><title>cubigram release illustration</title><g id="plant_5" data-name="plant 5"><polygon class="cls-1" points="106.084 0 0 47.291 0 181.564 106.084 229 212 181.709 212 181.564 212 47.291 106.084 0"/><path class="cls-2" d="M212,116.66675c-.23047-.09058-.45654-.19031-.69043-.2732-32-11.33331-93.33325-4-104.69238-.56463-11.35889,3.43536-67.144-18.76868-67.144-18.76868C37.854,97.06024,16.77953,105.7088,0,112.78131v59.50922L106.08424,229,212,172.29053Z"/><path class="cls-3" d="M212,181.56433V158.86792c-10.03735-3.984-18.68066-7.434-18.68066-7.434l-40.80811,23.49127c-18.39062,8.65466-43.709-2.50354-43.709-2.50354C89.09862,152.40253,28.75683,160.4707,0,158.15228v23.41205L106.08424,229Z"/><polygon class="cls-4" points="34.3 31.88 73.036 129.938 138.31 129.938 177.627 31.9 106.084 0 34.3 31.88"/><polygon class="cls-5" points="105.833 14.291 151.519 35.652 151.519 93.501 105.833 114.862 60.147 93.501 60.147 35.652 105.833 14.291"/><polygon class="cls-6" points="151.519 35.652 105.833 14.291 60.147 35.652 105.833 57.014 151.519 35.652"/><polygon class="cls-7" points="105.833 57.014 105.833 114.862 151.519 93.501 151.519 35.652 105.833 57.014"/><line class="cls-8" x1="151.5194" y1="35.6523" x2="126.53864" y2="23.97183"/><path class="cls-9" d="M97.10607,164.56624c3.46381-13.02156,13.28925-22.70446,15.3098-23.72576h12.1233a13.13872,13.13872,0,0,1-4.6184,2.55324,35.90214,35.90214,0,0,0-8.08221,10.213s-2.16488,6.51079-2.16489,8.681Z"/><path class="cls-10" d="M97.4683,163.29479l.00958-.03036q.18753-.61687.39224-1.22323l.00029-.00072c1.13374-.69482,2.91877-1.77353,4.20205-2.4762,1.83634-1.00553,5.02108-4.21239,9.51476-12.22972.833-1.486-1.10837-2.08146-3.59234-2.4215a21.55856,21.55856,0,0,1,4.42094-4.0726h12.12331a13.1388,13.1388,0,0,1-4.61841,2.55324s-5.66534,4.92253-8.08221,10.213c0,0-2.16488,6.51078-2.16488,8.681l-12.56756,2.27848Q97.27668,163.92474,97.4683,163.29479Z"/><path class="cls-9" d="M74.74289,214.98549l5.21192,2.33057c14.55273-18.47754,22.87915-27.58033,28.134-31.56482,5.637-4.27429,7.49536-7.49549,8.23877-9.47779s1.54858-3.1593,10.77856-12.38928,11.3982-9.29187,12.51319-10.40686a65.041,65.041,0,0,1,6.44238-4.33624c2.23-.74335,6.938-2.84949,6.938-2.84949a25.75974,25.75974,0,0,0,9.168-3.09735l-1.115-.37164a2.55372,2.55372,0,0,0-.49561-1.9823H148.16794l-22.54834,12.637-25.02612,25.76953Z"/><path class="cls-11" d="M125.61956,153.47731l22.54839-12.637h12.38922a2.55384,2.55384,0,0,1,.49557,1.98228l1.115.37167a25.76006,25.76006,0,0,1-9.168,3.09731s-4.7079,2.10616-6.938,2.84952a65.04826,65.04826,0,0,0-6.4424,4.33622c-.58788.58792-1.47.88443-3.52415,2.38505-5.6613.13508-10.66163.50407-14.24011,1.49121Z"/><path class="cls-9" d="M152.99974,146.29157a25.76006,25.76006,0,0,0,9.168-3.09731l-1.115-.37167s-5.39876.69371-7.14536,2.47784C153.49117,145.72558,152.99974,146.29157,152.99974,146.29157Z"/><path class="cls-9" d="M113.47811,159.79582a14.63082,14.63082,0,0,0-8.17688,1.23892c-1.98228.99113-10.65474,1.115-14.61929,6.69017-4.75933,6.6928,4.46012,7.80521,4.46012,7.80521l12.8848-7.68131Z"/><path class="cls-12" d="M113.47811,159.79582a14.63082,14.63082,0,0,0-8.17688,1.23892c-1.98228.99113-10.65474,1.115-14.61929,6.69017-4.75933,6.6928,4.46012,7.80521,4.46012,7.80521l12.8848-7.68131Z"/><path class="cls-13" d="M87.95627,167.10536a23.77083,23.77083,0,0,0-6.69019-.99109,23.58672,23.58672,0,0,1-5.699-9.168c-1.48682-3.9646-5.45117-14.61933-9.91138-16.106H49.79758a42.22481,42.22481,0,0,0,6.69018,5.699s2.72559,2.97345,2.72559,3.96454,1.48657,2.2301,2.23,4.21234,3.22119,12.14148,3.22119,13.62818-.2478,7.43359-1.239,8.42468c-.991.99109-2.97315,9.66357-1.73438,18.08826,0,0-.35742,3.1792-7.11645,11.1101L77.843,216.37172,112.73483,176.893s3.469-3.59289,6.814-6.938c3.34521-3.34509,8.54858-8.053,9.41577-9.41577s9.5398-10.15918,11.646-10.90259,5.699-3.84063,5.699-3.84063a17.55573,17.55573,0,0,0,8.42456-4.95569H138.50437c-3.469,0-12.68921,7.3587-16.84937,9.91137-4.42749,2.71686-5.823,4.08844-10.15918,8.42475s-13.62817,9.41577-15.36255,9.41577A28.696,28.696,0,0,1,87.95627,167.10536Z"/><path class="cls-14" d="M8.1697,134.39792h0a16.5067,16.5067,0,0,0,13.08362,6.44239H190.09249a16.5067,16.5067,0,0,0,13.08361-6.44239H8.1697Z"/><path class="cls-14" d="M8.1697,129.9378H6.43521a4.46012,4.46012,0,0,0-4.46012,4.46012H209.37072a4.46011,4.46011,0,0,0-4.46012-4.46011H8.1697Z"/><g class="cls-15"><path class="cls-12" d="M97.46915,168.23549a2.13646,2.13646,0,0,1-1.33595.35667A4.46276,4.46276,0,0,0,97.46915,168.23549Z"/><path class="cls-12" d="M81.6378,169.83108c-5.07958-2.60173-9.41581-9.78748-10.15916-13.752s-2.72563-9.168-6.56629-10.53084c-3.25786-1.156-7.06041-2.37246-10.32286-4.7079H65.6557c4.46013,1.48671,8.42468,12.14143,9.91138,16.106a23.58641,23.58641,0,0,0,5.69905,9.168,23.77,23.77,0,0,1,6.69018.99113,28.69814,28.69814,0,0,0,8.17689,1.48671C90.43415,168.59216,86.71739,172.43282,81.6378,169.83108Z"/></g><path class="cls-10" d="M111.0829,164.46243c-2.395,2.06455-13.61036,3.77254-13.61363,3.773a51.81444,51.81444,0,0,0,14.02657-9.05911c4.33623-4.33622,5.73171-5.70784,10.15916-8.42466,4.16007-2.55271,13.38037-9.91138,16.84935-9.91138h16.22989a17.556,17.556,0,0,1-8.42468,4.95569,32.85125,32.85125,0,0,1-4.8197,3.44584c-6.14742,1.26049-12.42576,2.16718-16.36587,3.16173C116.61668,154.55106,113.47811,162.39755,111.0829,164.46243Z"/><path class="cls-14" d="M49.85944,141.7695c.99114,0,7.99484.09171,9.60165,3.15925.68141,1.30087-.75646,2.55105-2.42245,2.23569s-5.81638-3.53656-7.1792-5.39494Z"/><path class="cls-9" d="M152.99974,141.33588a9.59263,9.59263,0,0,1,1.32447-.06724,17.61848,17.61848,0,0,1-8.01465,4.52736S149.7166,141.70756,152.99974,141.33588Z"/><path class="cls-9" d="M121.55218,140.84048h2.987a13.13872,13.13872,0,0,1-4.6184,2.55324A3.63572,3.63572,0,0,1,121.55218,140.84048Z"/><path class="cls-10" d="M73.53684,214.44643l6.418,2.86963c14.55273-18.47754,22.87915-27.58033,28.134-31.56494a41.69448,41.69448,0,0,0,3.33667-2.798c-13.177,8.9939-18.13111,12.09644-26.72119,13.99988C78.57736,198.31069,78.07736,204.33705,73.53684,214.44643Z"/><path class="cls-16" d="M200.31648,137.27624a16.477,16.477,0,0,0,2.85978-2.87829H8.16975a16.50685,16.50685,0,0,0,13.08339,6.44239C26.62169,134.42844,156.92213,137.00638,200.31648,137.27624Z"/><polygon class="cls-17" points="106.084 0 0 47.291 0 181.564 106.084 229 212 181.709 212 181.564 212 47.291 106.084 0"/></g></svg>