<?xml version="1.0" encoding="UTF-8"?>
<svg width="211px" height="228px" viewBox="0 0 211 228" version="1.1" xmlns="http://www.w3.org/2000/svg" xmlns:xlink="http://www.w3.org/1999/xlink">
    <title>cubigram es cube simple</title>
    <defs>
        <linearGradient x1="50%" y1="79.5928779%" x2="50%" y2="45.744397%" id="linearGradient-1">
            <stop stop-color="#7B3B59" offset="0%"></stop>
            <stop stop-color="#834061" offset="100%"></stop>
        </linearGradient>
        <linearGradient x1="40.9654447%" y1="77.3648563%" x2="70.7616587%" y2="-12.8853732%" id="linearGradient-2">
            <stop stop-color="#733753" offset="0%"></stop>
            <stop stop-color="#793E57" offset="100%"></stop>
        </linearGradient>
    </defs>
    <g id="Page-1" stroke="none" stroke-width="1" fill="none" fill-rule="evenodd">
        <g id="cubigram-es-cube-simple" fill-rule="nonzero">
            <polygon id="Path" fill="url(#linearGradient-1)" points="105.584 0.087 211 47.135 211 180.721 105.584 227.913 0 180.721 0 47.135"></polygon>
            <polygon id="Path" fill="#8A4365" points="211 47.135 105.584 0.087 0 47.135 105.584 94.183"></polygon>
            <polygon id="Path" fill="url(#linearGradient-2)" points="105.584 94.183 105.584 227.913 211 180.865 211 47.135"></polygon>
            <path d="M135.3371,128.05046 L110.7931,139.0044 C109.130713,139.746315 108.06003,141.396479 108.06003,143.21691 L108.06003,174.9078 C108.06003,175.858948 108.541643,176.745406 109.339579,177.263075 C110.137514,177.780744 111.143285,177.859223 112.01186,177.47159 L135.80971,166.85072 C137.339478,166.168044 138.32462,164.649512 138.32462,162.97433 L138.32462,129.98868 C138.32462,129.269617 137.960557,128.599451 137.357325,128.208091 C136.754093,127.816731 135.993734,127.757403 135.3371,128.05046 Z M130.11331,159.68672 L119.37931,164.40356 L119.37931,145.08919 L122.76891,143.59959 L122.76891,159.27149 L130.11331,156.04425 L130.11331,159.68672 Z" id="Shape" fill="#FF8889"></path>
            <path d="M170.554,112.333 L146.00979,123.2869 C144.347445,124.028837 143.2769,125.679009 143.2769,127.49941 L143.2769,159.1903 C143.2769,160.141428 143.758429,161.027888 144.556333,161.54557 C145.354237,162.063252 146.359987,162.141752 147.22855,161.75414 L171.02655,151.13326 C172.556272,150.450509 173.54146,148.932001 173.54146,147.25683 L173.54146,114.27114 C173.54146,113.5521 173.177383,112.88196 172.574166,112.490618 C171.970949,112.099276 171.210615,112.039953 170.554,112.333 L170.554,112.333 Z M165.25231,143.88567 L154.51831,148.60251 L154.51831,129.2881 L157.90791,127.7985 L157.90791,143.47039 L165.25231,140.24315 L165.25231,143.88567 Z" id="Shape" fill="#FF8889"></path>
            <polygon id="Path" fill="#FF8889" points="191.541 124.64 196.186 122.598 193.864 116.224"></polygon>
            <path d="M205.77064,96.61543 L181.22643,107.56932 C179.564082,108.311258 178.49354,109.961435 178.49354,111.78184 L178.49354,143.47272 C178.49354,144.423857 178.97505,145.310331 179.772962,145.828017 C180.570874,146.345703 181.576636,146.424193 182.4452,146.03656 L206.2432,135.41568 C207.772922,134.732929 208.75811,133.214421 208.75811,131.53925 L208.75811,98.5536 C208.75811,97.8345495 208.394054,97.1643942 207.79083,96.7730434 C207.187607,96.3816925 206.42726,96.3223709 205.77064,96.61543 L205.77064,96.61543 Z M198.55133,129.09188 L197.2538,125.52333 L190.45318,128.5122 L189.15634,133.22075 L185.68245,134.74697 L192.21085,112.56397 L195.559,111.09234 L202.10813,127.52834 L198.55133,129.09188 Z" id="Shape" fill="#FF8889"></path>
            <polygon id="Path" fill="#FF9E9F" points="129.03549 204.61449 129.01476 193.03484 124.70487 204.47561 123.17727 205.14718 118.88742 197.73303 118.88742 209.07361 115.70716 210.47132 115.70716 191.157 118.51087 189.92511 123.99324 199.51839 129.39131 185.14333 132.17498 183.92042 132.21644 203.21613"></polygon>
            <path d="M135.3371,83.61592 L110.7931,94.56986 C109.130713,95.3117809 108.06003,96.9619468 108.06003,98.78238 L108.06003,130.47326 C108.06003,131.42441 108.541638,132.310871 109.339574,132.828542 C110.137511,133.346214 111.143283,133.424694 112.01186,133.03706 L135.80971,122.41618 C137.339478,121.733504 138.32462,120.214972 138.32462,118.53979 L138.32462,85.55414 C138.32462,84.8350774 137.960557,84.1649109 137.357325,83.773551 C136.754093,83.382191 135.993734,83.3228629 135.3371,83.61592 Z M125.65625,117.19092 L122.26665,118.68052 L122.26665,99.36619 L125.65625,97.87659 L125.65625,117.19092 Z" id="Shape" fill="#FF8889"></path>
            <path d="M162.66688,90.60685 L165.76488,89.24575 L165.76488,97.08205 C164.980624,98.2100571 164.051968,99.2304596 163.00262,100.11721 C162.051177,100.938738 160.986967,101.61975 159.84241,102.1395 C158.575628,102.778747 157.127342,102.962225 155.74117,102.65907 C154.509327,102.322714 153.473932,101.487182 152.88495,100.35419 C152.139849,98.9068233 151.783219,97.2908278 151.84995,95.6643 C151.864549,91.8333358 153.252543,88.1346356 155.76188,85.23986 C156.898065,83.9136239 158.312484,82.8539901 159.90457,82.1363 C160.990315,81.609034 162.194931,81.3744444 163.39919,81.45575 C164.413416,81.5496283 165.354916,82.0226011 166.0357,82.78023 L163.8607,86.38539 C162.85061,85.3958599 161.310918,85.1863351 160.07314,85.86997 C159.114225,86.2986325 158.263424,86.9365075 157.58314,87.73681 C156.841964,88.5981758 156.267068,89.5896032 155.88765,90.66074 C155.482275,91.7813185 155.276947,92.9644091 155.28103,94.15605 C155.241182,95.1689593 155.449427,96.1762647 155.88765,97.09034 C156.220701,97.7894665 156.831764,98.3168129 157.57209,98.54401 C158.400885,98.7414366 159.272908,98.6370866 160.03172,98.24968 C161.046728,97.7912075 161.946893,97.1124446 162.66685,96.26268 L162.66688,90.60685 Z" id="Path" fill="#E7E9EA"></path>
            <polygon id="Path" fill="#E7E9EA" points="199.94282 80.43942 199.94282 84.02663 188.60154 89.01015 188.60154 69.69578 199.6706 64.83178 199.6706 68.4176 191.97042 71.80168 191.97042 75.99619 198.77035 73.008 198.77035 76.48466 191.97042 79.47284 191.97042 83.94233"></polygon>
            <path d="M162.89765,170.91538 C163.816345,171.042224 164.628204,171.578215 165.10579,172.3732 C165.673624,173.407736 165.941608,174.580163 165.87961,175.75866 C165.884882,177.146154 165.622131,178.521609 165.10579,179.80946 C164.60034,181.076272 163.849972,182.230941 162.89765,183.20735 C161.932746,184.195071 160.784738,184.985446 159.51772,185.53435 L156.56754,186.8305 L156.56754,192.156 L153.17793,193.6456 L153.17793,174.33124 L159.51772,171.54549 C160.561745,171.01898 161.73404,170.800433 162.89765,170.91538 L162.89765,170.91538 Z M161.65265,180.08513 C162.191253,179.245044 162.46827,178.263943 162.44858,177.26622 C162.563213,176.461732 162.263825,175.653764 161.65265,175.11822 C160.902102,174.775316 160.029531,174.832155 159.32981,175.26953 L156.56756,176.48346 L156.56756,183.18874 L159.32981,181.9755 C160.273809,181.588648 161.082077,180.930859 161.65263,180.08513 L161.65265,180.08513 Z" id="Shape" fill="#E7E9EA"></path>
            <polygon id="Path" fill="#E7E9EA" points="192.19013 157.02672 195.57973 155.53712 195.57973 174.85149 192.19013 176.34109"></polygon>
            <polygon id="Path" fill="#FF9E9F" points="52.17805 175.235 52.17805 180.33944 59.0374 183.40707 59.0374 186.99427 52.17805 183.92664 52.17805 190.96286 48.74705 189.42835 48.74705 170.11393 59.94805 175.12302 59.94805 178.71022"></polygon>
            <polygon id="Path" fill="#FF9E9F" points="13.89892 154.22992 17.32928 155.76374 17.32928 171.43633 24.76139 174.76033 24.76139 178.40212 13.89892 173.54433"></polygon>
            <path d="M84.50915,204.83143 C83.6575787,203.952009 82.9597317,202.935829 82.44472,201.82528 L84.35024,199.69728 C84.8392831,201.107352 85.8149808,202.296902 87.10214,203.05234 C88.4998533,203.677613 89.1988233,202.92337 89.19905,200.78961 L89.19905,191.60121 L83.98959,189.27146 L83.98959,185.68426 L92.6073,189.53884 L92.6073,202.06572 C92.6073,204.4383 92.1556767,206.016107 91.25243,206.79914 C90.3487167,207.581253 89.02194,207.581023 87.2721,206.79845 C86.2341614,206.324875 85.2963412,205.657215 84.50915,204.83143 Z" id="Path" fill="#FF9E9F"></path>
            <path d="M46.76685,124.77369 L53.50045,127.78469 C55.1223569,128.514384 56.5749518,129.573125 57.76613,130.89378 C59.0076586,132.257312 59.9842303,133.840257 60.64584,135.56156 C61.3310609,137.326357 61.6793075,139.203987 61.67253,141.09713 C61.7493696,142.700574 61.3948272,144.295287 60.64584,145.71513 C60.042006,146.80355 58.9878915,147.56935 57.76613,147.8072 C56.3052489,148.022017 54.8137603,147.774644 53.50045,147.09971 L46.76685,144.08871 L46.76685,124.77369 Z M53.33049,143.35432 C54.8131567,144.0169 55.9955333,144.007457 56.87762,143.32599 C57.75922,142.64475 58.20002,141.384533 58.20002,139.54534 C58.2252875,137.799907 57.7676386,136.08145 56.87762,134.57977 C56.0599964,133.167342 54.8191617,132.047588 53.33049,131.37877 L50.19791,129.9776 L50.19791,141.95313 L53.33049,143.35432 Z" id="Shape" fill="#FF9E9F"></path>
            <path d="M15.01128,129.29777 C14.0087013,128.491967 13.1217757,127.552034 12.37546,126.50442 L13.53964,123.65926 C14.1938203,124.571475 14.954346,125.402508 15.80514,126.13479 C16.5906565,126.836065 17.47533,127.417622 18.43059,127.86068 C19.0797177,128.247475 19.8456928,128.389592 20.59037,128.2614 C21.0702535,128.073213 21.358925,127.580962 21.28888,127.07028 C21.2847389,126.595996 21.141044,126.133429 20.87572,125.74028 C20.5810891,125.291437 20.2250362,124.886078 19.81794,124.53602 C19.3868067,124.15948 18.80437,123.69657 18.07063,123.14729 C17.1083996,122.431271 16.1827935,121.667306 15.29732,120.85829 C14.5385625,120.13504 13.9115316,119.285198 13.44432,118.34684 C12.9144742,117.280007 12.6495151,116.101203 12.67188,114.91025 C12.6291712,113.949256 12.872244,112.997162 13.37039,112.17425 C13.8477887,111.464805 14.624251,111.013566 15.477,110.95 C16.6692149,110.886433 17.8568436,111.141605 18.91773,111.68927 C20.9205955,112.609117 22.6818926,113.982485 24.06224,115.70069 L23.00377,118.62117 C21.9016497,117.21097 20.4982919,116.064914 18.89631,115.2668 C18.2597377,114.877675 17.4958938,114.753869 16.769,114.922 C16.2860713,115.16067 16.0091938,115.680792 16.08086,116.21469 C16.0926589,116.906021 16.3781445,117.564456 16.87471,118.0456 C17.6238899,118.791492 18.4346691,119.472843 19.29842,120.0824 C20.260831,120.798218 21.186665,121.561945 22.07242,122.37069 C22.8262439,123.087864 23.4526164,123.928011 23.92475,124.8552 C24.4567536,125.911164 24.7221878,127.081302 24.69788,128.26346 C24.7388409,129.215511 24.4915403,130.157763 23.98832,130.96699 C23.5011465,131.674993 22.7176852,132.122174 21.86032,132.1816 C20.6645088,132.242696 19.4738299,131.986208 18.40923,131.43819 C17.1850979,130.881476 16.0420487,130.161452 15.01128,129.29777 L15.01128,129.29777 Z" id="Path" fill="#FF9E9F"></path>
            <polygon id="Path" fill="#FF9E9F" points="83.87283 141.17865 87.30319 142.71246 87.30319 158.38505 94.7353 161.70905 94.7353 165.35083 83.87283 160.493"></polygon>
            <path d="M57.59755,86.01921 C59.5457853,88.0288961 60.6287339,90.7221282 60.61406,93.5211 C60.6744135,94.692932 60.4028426,95.8580086 59.83057,96.88238 C59.3491446,97.6801943 58.5236947,98.208364 57.59757,98.31118 C56.4160807,98.4002685 55.2328648,98.1624283 54.17757,97.62372 L51.19284,96.28819 L51.19284,101.61372 L47.76316,100.07921 L47.76316,80.76484 L54.17757,83.63419 C55.4608157,84.2010072 56.6221798,85.0109174 57.59755,86.01921 Z M56.33733,94.078 C56.9520373,93.5611345 57.256592,92.7637046 57.14293,91.96866 C57.1636195,90.9575429 56.8832051,89.9631055 56.33733,89.11175 C55.7579452,88.2565065 54.9415321,87.5889676 53.98824,87.19102 L51.19282,85.94117 L51.19282,92.64644 L53.98824,93.8956 C54.6921831,94.3433589 55.5727067,94.411729 56.33733,94.078 L56.33733,94.078 Z" id="Shape" fill="#FF9E9F"></path>
            <polygon id="Path" fill="#FF9E9F" points="16.82146 66.62815 20.25183 68.162 20.25183 87.477 16.82146 85.94318"></polygon>
            <polygon id="Path" fill="#FF8889" points="103.305 79.32 109.922 79.32 106.613 75.763"></polygon>
            <path d="M133.56406,77.15152 L108.6573,66.03561 C106.822249,65.21662 104.725501,65.21662 102.89045,66.03561 L77.98421,77.15178 C77.474318,77.379368 77.1459466,77.8855319 77.1459466,78.44391 C77.1459466,79.0022881 77.474318,79.508452 77.98421,79.73604 L102.89114,90.852 C104.726186,91.6710103 106.822944,91.6710103 108.65799,90.852 L133.56423,79.73583 C134.074182,79.5082597 134.402552,79.0020453 134.402552,78.4436198 C134.402552,77.8851944 134.074042,77.3790232 133.56406,77.15152 L133.56406,77.15152 Z M113.29036,82.94397 L111.44218,80.95277 L101.75425,80.95277 L99.90676,82.94397 L94.95847,82.94397 L104.25879,73.65197 L109.02814,73.65197 L118.35749,82.94397 L113.29036,82.94397 Z" id="Shape" fill="#FF8889"></path>
            <polygon id="Path" fill="#FF9E9F" points="68.85453 57.96967 73.6833 57.96967 73.6833 67.261 68.85453 67.261"></polygon>
            <polygon id="Path" fill="#FF9E9F" points="47.42874 42.40487 38.39718 51.69621 33.62718 51.69621 24.626 42.40487 29.84237 42.40487 36.19044 49.04174 42.62972 42.40487"></polygon>
            <polygon id="Path" fill="#FF9E9F" points="152.72746 26.95752 143.69451 36.25025 138.92586 36.25025 129.92331 26.95752 135.13968 26.95752 141.48913 33.59508 147.92702 26.95752"></polygon>
            <path d="M133.56406,45.84283 L108.65712,34.72692 C106.822064,33.9079387 104.72531,33.9079715 102.89028,34.72701 L77.984,45.84313 C77.4740779,46.070705 77.1456805,46.5768846 77.1456805,47.135285 C77.1456805,47.6936854 77.4740779,48.199865 77.984,48.42744 L102.891,59.5433 C104.726038,60.3623302 106.822802,60.3623302 108.65784,59.5433 L133.56409,48.42713 C134.074003,48.1995465 134.402383,47.6933662 134.402383,47.1349703 C134.402383,46.5765744 134.073979,46.0704017 133.56406,45.84283 Z M110.98549,51.81505 L106.96163,49.22621 L102.51978,49.22621 L102.51978,51.81505 L97.691,51.81505 L97.691,42.523 L106.72257,42.523 C108.336932,42.5022914 109.949425,42.6402137 111.53682,42.93478 C112.651437,43.1145307 113.719954,43.5112377 114.68182,44.10242 C115.360405,44.4420505 115.787726,45.1370766 115.784502,45.8959023 C115.781278,46.654728 115.348067,47.3460979 114.66662,47.67995 C113.693237,48.2657708 112.614805,48.6558362 111.49189,48.82824 L116.17211,51.81505 L110.98549,51.81505 Z" id="Shape" fill="#FF8889"></path>
            <path d="M109.76327,44.69316 C108.69131,44.3705854 107.573003,44.2293086 106.4545,44.27516 L102.51978,44.27516 L102.51978,47.51416 L106.4545,47.51416 C107.573522,47.5607982 108.692342,47.4171202 109.76327,47.08925 C110.51843,46.8059767 110.896127,46.4077833 110.89636,45.89467 C110.89636,45.37233 110.518663,44.9718267 109.76327,44.69316 Z" id="Path" fill="#FF8889"></path>
            <path d="M131.473,58.08713 L140.95228,58.08713 C142.969258,58.0629133 144.982954,58.2565691 146.95835,58.66473 C148.405133,58.9295901 149.78388,59.4826874 151.0126,60.29113 C151.903995,60.7804873 152.457993,61.7166094 152.457993,62.733495 C152.457993,63.7503806 151.903995,64.6865027 151.0126,65.17586 C149.783878,65.9842989 148.405132,66.5373959 146.95835,66.80226 C144.983004,67.2107568 142.969272,67.4044162 140.95228,67.37986 L131.473,67.37986 L131.473,58.08713 Z M140.71322,65.61389 C142.412075,65.6785666 144.107454,65.4148885 145.70642,64.83731 C146.947993,64.3198233 147.56912,63.61855 147.5698,62.73349 C147.5698,61.8484367 146.948673,61.1471633 145.70642,60.62967 C144.107454,60.0520915 142.412075,59.7884134 140.71322,59.85309 L136.30176,59.85309 L136.30176,65.61389 L140.71322,65.61389 Z" id="Shape" fill="#FF9E9F"></path>
            <polygon id="Path" fill="#FF9E9F" points="173.87412 44.24821 173.87412 46.7037 183.53234 46.7037 183.53234 48.4296 173.87412 48.4296 173.87412 51.81505 169.04536 51.81505 169.04536 42.52232 184.814 42.52232 184.814 44.24821"></polygon>
            <path d="M133.56388,14.53414 L108.657,3.41823 C106.821886,2.59925945 104.725088,2.59929218 102.89,3.41832 L77.98386,14.53445 C77.473968,14.762038 77.1455966,15.2682019 77.1455966,15.82658 C77.1455966,16.3849581 77.473968,16.891122 77.98386,17.11871 L102.89079,28.23462 C104.725844,29.0536094 106.8226,29.0535912 108.65764,28.23457 L133.56388,17.1184 C134.073772,16.890812 134.402143,16.3846481 134.402143,15.82627 C134.402143,15.2678919 134.073772,14.761728 133.56388,14.53414 Z M113.33579,20.59519 L113.30608,15.02019 L107.166,19.61341 L104.9896,19.61341 L98.8792,15.13977 L98.8792,20.59519 L94.3482,20.59519 L94.3482,11.30319 L98.34235,11.30319 L106.15235,17.07781 L113.84287,11.30319 L117.8073,11.30319 L117.86672,20.59519 L113.33579,20.59519 Z" id="Shape" fill="#FF8889"></path>
            <path d="M98.48867,30.18851 L73.58173,19.0726 C71.7466872,18.2535901 69.6499328,18.2535901 67.81489,19.0726 L42.90864,30.18881 C42.398748,30.416398 42.0703766,30.9225619 42.0703766,31.48094 C42.0703766,32.0393181 42.398748,32.545482 42.90864,32.77307 L67.81558,43.889 C69.6506228,44.7080099 71.7473772,44.7080099 73.58242,43.889 L98.48867,32.77283 C98.9985982,32.5452576 99.3270007,32.0390748 99.3270007,31.48067 C99.3270007,30.9222652 98.9985982,30.4160824 98.48867,30.18851 L98.48867,30.18851 Z M77.74325,36.22166 L75.89507,34.23046 L66.20714,34.23046 L64.35965,36.22166 L59.41136,36.22166 L68.71169,26.92966 L73.481,26.92966 L82.81035,36.22166 L77.74325,36.22166 Z" id="Shape" fill="#FF8889"></path>
            <polygon id="Path" fill="#FF8889" points="67.758 32.598 74.375 32.598 71.066 29.04"></polygon>
            <path d="M100.37468,94.56986 L75.83047,83.61592 C75.1738377,83.3228989 74.413501,83.382244 73.810285,83.7735978 C73.207069,84.1649515 72.84298,84.8350939 72.84298,85.55414 L72.84298,118.53979 C72.84298,120.214952 73.8281674,121.733452 75.35789,122.41618 L99.15574,133.03706 C100.024316,133.424716 101.030101,133.346246 101.828044,132.828571 C102.625987,132.310895 103.10757,131.424418 103.10757,130.47326 L103.10757,98.78238 C103.10757,96.9619755 102.037028,95.3117982 100.37468,94.56986 Z M90.20432,118.87056 L86.81679,117.3554 L80.42242,95.1814 L84.12777,96.8382 L88.63734,112.65104 L93.21046,100.90074 L96.61941,102.42489 L90.20432,118.87056 Z" id="Shape" fill="#FF8889"></path>
        </g>
    </g>
</svg>