<svg xmlns="http://www.w3.org/2000/svg" xmlns:xlink="http://www.w3.org/1999/xlink" viewBox="0 0 295 286"><defs><style>.cls-1{fill:url(#Degradado_sin_nombre_193);}.cls-2{fill:#8a4365;}.cls-3{fill:url(#Degradado_sin_nombre_191);}.cls-4{fill:#ff8889;}.cls-5{fill:#ff9e9f;}.cls-6{fill:#e7e9ea;}.cls-7{fill:#793e57;}.cls-8{fill:#522654;}</style><linearGradient id="Degradado_sin_nombre_193" x1="147.5" y1="210.42027" x2="147.5" y2="133.30463" gradientUnits="userSpaceOnUse"><stop offset="0" stop-color="#7b3b59"/><stop offset="1" stop-color="#834061"/></linearGradient><linearGradient id="Degradado_sin_nombre_191" x1="172.2834" y1="215.99364" x2="264.65654" y2="52.84108" gradientUnits="userSpaceOnUse"><stop offset="0" stop-color="#733753"/><stop offset="1" stop-color="#793e57"/></linearGradient></defs><title>cubigram es cube</title><g id="plant_5" data-name="plant 5"><polygon class="cls-1" points="147.584 29.087 253 76.135 253 209.721 147.584 256.913 42 209.721 42 76.135 147.584 29.087"/><polygon class="cls-2" points="253 76.135 147.584 29.087 42 76.135 147.584 123.183 253 76.135"/><polygon class="cls-3" points="147.584 123.183 147.584 256.913 253 209.865 253 76.135 147.584 123.183"/><path class="cls-4" d="M177.3371,157.05046l-24.544,10.95394a4.61316,4.61316,0,0,0-2.73307,4.21251V203.9078a2.80761,2.80761,0,0,0,3.95183,2.56379l23.79785-10.62087a4.24474,4.24474,0,0,0,2.51491-3.87639V158.98868A2.12249,2.12249,0,0,0,177.3371,157.05046Zm-5.22379,31.63626-10.734,4.71684V174.08919l3.3896-1.4896v15.6719l7.34437-3.22724Z"/><path class="cls-4" d="M212.554,141.333l-24.54421,10.9539a4.613,4.613,0,0,0-2.73289,4.21251v31.69089a2.80751,2.80751,0,0,0,3.95165,2.56384l23.798-10.62088a4.24508,4.24508,0,0,0,2.51491-3.87643V143.27114A2.12245,2.12245,0,0,0,212.554,141.333Zm-5.30169,31.55267-10.734,4.71684V158.2881l3.3896-1.4896v15.67189l7.34437-3.22724Z"/><polygon class="cls-4" points="233.541 153.64 238.186 151.598 235.864 145.224 233.541 153.64"/><path class="cls-4" d="M247.77064,125.61543l-24.54421,10.95389a4.613,4.613,0,0,0-2.73289,4.21252v31.69088a2.80748,2.80748,0,0,0,3.95166,2.56384l23.798-10.62088a4.24508,4.24508,0,0,0,2.51491-3.87643V127.5536A2.12244,2.12244,0,0,0,247.77064,125.61543Zm-7.21931,32.47645-1.29753-3.56855-6.80062,2.98887-1.29684,4.70855-3.47389,1.52622,6.5284-22.183,3.34815-1.47163,6.54913,16.436Z"/><path class="cls-5" d="M171.03549,233.61449l-.02073-11.57965-4.30989,11.44077-1.5276.67157-4.28985-7.41415v11.34058l-3.18026,1.39771V220.157l2.80371-1.23189,5.48237,9.59328,5.39807-14.37506,2.78367-1.22291.04146,19.29571Z"/><path class="cls-4" d="M177.3371,112.61592l-24.544,10.95394a4.61318,4.61318,0,0,0-2.73307,4.21252v31.69088a2.80761,2.80761,0,0,0,3.95183,2.5638l23.79785-10.62088a4.24474,4.24474,0,0,0,2.51491-3.87639V114.55414A2.12249,2.12249,0,0,0,177.3371,112.61592Zm-9.68085,33.575-3.3896,1.4896V128.36619l3.3896-1.4896Z"/><path class="cls-6" d="M204.66688,119.60685l3.098-1.3611v7.8363a15.72982,15.72982,0,0,1-2.76226,3.03516,13.16371,13.16371,0,0,1-3.16021,2.02229,6.17506,6.17506,0,0,1-4.10124.51957,4.57827,4.57827,0,0,1-2.85622-2.30488,9.40423,9.40423,0,0,1-1.035-4.68989,16.00807,16.00807,0,0,1,3.91193-10.42444,11.88847,11.88847,0,0,1,4.14269-3.10356,6.931,6.931,0,0,1,3.49462-.68055,4.04587,4.04587,0,0,1,2.63651,1.32448l-2.175,3.60516a3.20093,3.20093,0,0,0-3.78756-.51542,7.03749,7.03749,0,0,0-2.49,1.86684,9.18464,9.18464,0,0,0-1.69549,2.92393,10.17243,10.17243,0,0,0-.60662,3.49531,6.22181,6.22181,0,0,0,.60662,2.93429,2.76405,2.76405,0,0,0,1.68444,1.45367,3.58319,3.58319,0,0,0,2.45963-.29433,7.50047,7.50047,0,0,0,2.63513-1.987Z"/><path class="cls-6" d="M241.94282,109.43942v3.58721l-11.34128,4.98352V98.69578l11.06906-4.864V97.4176l-7.70018,3.38408v4.19451l6.79993-2.98819v3.47666l-6.79993,2.98818v4.46949Z"/><path class="cls-6" d="M204.89765,199.91538a3.065,3.065,0,0,1,2.20814,1.45782,6.34339,6.34339,0,0,1,.77382,3.38546,10.77524,10.77524,0,0,1-.77382,4.0508,10.3709,10.3709,0,0,1-2.20814,3.39789,10.6355,10.6355,0,0,1-3.37993,2.327l-2.95018,1.29615V221.156l-3.38961,1.4896V203.33124l6.33979-2.78575A6.16107,6.16107,0,0,1,204.89765,199.91538Zm-1.245,9.16975a5.03864,5.03864,0,0,0,.79593-2.81891,2.4049,2.4049,0,0,0-.79593-2.148,2.45648,2.45648,0,0,0-2.32284.15131l-2.76225,1.21393v6.70528l2.76225-1.21324A5.16417,5.16417,0,0,0,203.65263,209.08513Z"/><path class="cls-6" d="M234.19013,186.02672l3.3896-1.4896v19.31437l-3.3896,1.4896Z"/><path class="cls-5" d="M94.17805,204.235v5.10444l6.85935,3.06763v3.5872l-6.85935-3.06763v7.03622l-3.431-1.53451V199.11393l11.201,5.00909v3.5872Z"/><path class="cls-5" d="M55.89892,183.22992l3.43036,1.53382v15.67259l7.43211,3.324v3.64179l-10.86247-4.85779Z"/><path class="cls-5" d="M126.50915,233.83143a10.93415,10.93415,0,0,1-2.06443-3.00615l1.90552-2.128a6.27393,6.27393,0,0,0,2.7519,3.35506q2.09657.93791,2.09691-2.26273v-9.1884l-5.20946-2.32975v-3.5872l8.61771,3.85458v12.52688q0,3.55887-1.35487,4.73342-1.35557,1.17317-3.98033-.00069A8.94972,8.94972,0,0,1,126.50915,233.83143Z"/><path class="cls-5" d="M88.76685,153.77369l6.7336,3.011a12.83753,12.83753,0,0,1,4.26568,3.10909,14.843,14.843,0,0,1,2.87971,4.66778,15.1441,15.1441,0,0,1,1.02669,5.53557,8.9767,8.9767,0,0,1-1.02669,4.618,4.21408,4.21408,0,0,1-2.87971,2.09207,7.07913,7.07913,0,0,1-4.26568-.70749l-6.7336-3.011Zm6.56364,18.58063q2.224.99387,3.54713-.02833,1.3224-1.02186,1.3224-3.78065a9.47024,9.47024,0,0,0-1.3224-4.96557,7.78494,7.78494,0,0,0-3.54713-3.201l-3.13258-1.40117v11.97553Z"/><path class="cls-5" d="M57.01128,158.29777a14.02073,14.02073,0,0,1-2.63582-2.79335l1.16418-2.84516a14.13367,14.13367,0,0,0,2.2655,2.47553,10.70658,10.70658,0,0,0,2.62545,1.72589,3.169,3.169,0,0,0,2.15978.40072,1.11647,1.11647,0,0,0,.69851-1.19112,2.41525,2.41525,0,0,0-.41316-1.33,5.7491,5.7491,0,0,0-1.05778-1.20426q-.6467-.56481-1.74731-1.38873a35.76793,35.76793,0,0,1-2.77331-2.289,9.02979,9.02979,0,0,1-1.853-2.51145,7.413,7.413,0,0,1-.77244-3.43659,4.86614,4.86614,0,0,1,.69851-2.736A2.78906,2.78906,0,0,1,57.477,139.95a6.72071,6.72071,0,0,1,3.44073.73927,14.20223,14.20223,0,0,1,5.14451,4.01142l-1.05847,2.92048a12.01053,12.01053,0,0,0-4.10746-3.35437A2.84816,2.84816,0,0,0,58.769,143.922a1.25561,1.25561,0,0,0-.68814,1.29269,2.61146,2.61146,0,0,0,.79385,1.83091,18.79411,18.79411,0,0,0,2.42371,2.0368,35.80468,35.80468,0,0,1,2.774,2.28829,9.177,9.177,0,0,1,1.85233,2.48451,7.24406,7.24406,0,0,1,.77313,3.40826,4.73423,4.73423,0,0,1-.70956,2.70353,2.81979,2.81979,0,0,1-2.128,1.21461,6.784,6.784,0,0,1-3.45109-.74341A14.88592,14.88592,0,0,1,57.01128,158.29777Z"/><path class="cls-5" d="M125.87283,170.17865l3.43036,1.53381v15.67259l7.43211,3.324v3.64178L125.87283,189.493Z"/><path class="cls-5" d="M99.59755,115.01921a10.69732,10.69732,0,0,1,3.01651,7.50189,6.23445,6.23445,0,0,1-.78349,3.36128,2.99388,2.99388,0,0,1-2.233,1.4288,6.45458,6.45458,0,0,1-3.42-.68746l-2.98473-1.33553v5.32553l-3.42968-1.53451V109.76484l6.41441,2.86935A10.8675,10.8675,0,0,1,99.59755,115.01921ZM98.33733,123.078a2.32584,2.32584,0,0,0,.8056-2.10934,5.09964,5.09964,0,0,0-.8056-2.85691,5.30653,5.30653,0,0,0-2.34909-1.92073l-2.79542-1.24985v6.70527l2.79542,1.24916A2.50778,2.50778,0,0,0,98.33733,123.078Z"/><path class="cls-5" d="M58.82146,95.62815,62.25183,97.162V116.477l-3.43037-1.53382Z"/><polygon class="cls-4" points="145.305 108.32 151.922 108.32 148.613 104.763 145.305 108.32"/><path class="cls-4" d="M175.56406,106.15152,150.6573,95.03561a7.07492,7.07492,0,0,0-5.76685,0l-24.90624,11.11617a1.415,1.415,0,0,0,0,2.58426L144.89114,119.852a7.07476,7.07476,0,0,0,5.76685,0l24.90624-11.11617A1.41494,1.41494,0,0,0,175.56406,106.15152Zm-20.2737,5.79245-1.84818-1.9912h-9.68793l-1.84749,1.9912h-4.94829l9.30032-9.292h4.76935l9.32935,9.292Z"/><path class="cls-5" d="M110.85453,86.96967h4.82877V96.261h-4.82877Z"/><path class="cls-5" d="M89.42874,71.40487l-9.03156,9.29134h-4.77L66.626,71.40487h5.21637l6.34807,6.63687,6.43928-6.63687Z"/><path class="cls-5" d="M194.72746,55.95752l-9.03295,9.29273h-4.76865l-9.00255-9.29273h5.21637l6.34945,6.63756,6.43789-6.63756Z"/><path class="cls-4" d="M175.56406,74.84283,150.65712,63.72692a7.07474,7.07474,0,0,0-5.76684.00009L119.984,74.84313a1.415,1.415,0,0,0,0,2.58431L144.891,88.5433a7.07458,7.07458,0,0,0,5.76684,0l24.90625-11.11617A1.415,1.415,0,0,0,175.56406,74.84283Zm-22.57857,5.97222-4.02386-2.58884h-4.44185v2.58884H139.691V71.523h9.03157a24.65335,24.65335,0,0,1,4.81425.41178,8.63026,8.63026,0,0,1,3.145,1.16764,1.99609,1.99609,0,0,1-.0152,3.57753,8.72418,8.72418,0,0,1-3.17473,1.14829l4.68022,2.9868Z"/><path class="cls-4" d="M151.76327,73.69316a10.05352,10.05352,0,0,0-3.30877-.418h-3.93472v3.239h3.93472a9.89511,9.89511,0,0,0,3.30877-.42491q1.13274-.42491,1.13309-1.19458Q152.89636,74.11116,151.76327,73.69316Z"/><path class="cls-5" d="M173.473,87.08713h9.47928a28.01945,28.01945,0,0,1,6.00607.5776,10.97,10.97,0,0,1,4.05425,1.6264,2.7862,2.7862,0,0,1,0,4.88473,10.97015,10.97015,0,0,1-4.05425,1.6264,27.976,27.976,0,0,1-6.00607.5776H173.473Zm9.24022,7.52676a13.21728,13.21728,0,0,0,4.9932-.77658q1.86236-.77623,1.86338-2.10382,0-1.32758-1.86338-2.10382a13.21728,13.21728,0,0,0-4.9932-.77658h-4.41146v5.7608Z"/><path class="cls-5" d="M215.87412,73.24821V75.7037h9.65822v1.7259h-9.65822v3.38545h-4.82876V71.52232H226.814v1.72589Z"/><path class="cls-4" d="M175.56388,43.53414,150.657,32.41823a7.0752,7.0752,0,0,0-5.767.00009L119.98386,43.53445a1.415,1.415,0,0,0,0,2.58426l24.90693,11.11591a7.0748,7.0748,0,0,0,5.76685-.00005L175.56388,46.1184A1.415,1.415,0,0,0,175.56388,43.53414Zm-20.22809,6.06105-.02971-5.575L149.166,48.61341H146.9896l-6.1104-4.47364v5.45542h-4.531v-9.292h3.99415l7.81,5.77462,7.69052-5.77462h3.96443l.05942,9.292Z"/><path class="cls-4" d="M140.48867,59.18851,115.58173,48.0726a7.07474,7.07474,0,0,0-5.76684,0L84.90864,59.18881a1.415,1.415,0,0,0,0,2.58426L109.81558,72.889a7.07474,7.07474,0,0,0,5.76684,0l24.90625-11.11617A1.415,1.415,0,0,0,140.48867,59.18851Zm-20.74542,6.03315-1.84818-1.9912h-9.68793l-1.84749,1.9912h-4.94829l9.30033-9.292H115.481l9.32935,9.292Z"/><polygon class="cls-4" points="109.758 61.598 116.375 61.598 113.066 58.04 109.758 61.598"/><path class="cls-4" d="M142.37468,123.56986l-24.54421-10.95394a2.12253,2.12253,0,0,0-2.98749,1.93822v32.98565a4.245,4.245,0,0,0,2.51491,3.87639l23.79785,10.62088a2.80757,2.80757,0,0,0,3.95183-2.5638V127.78238A4.613,4.613,0,0,0,142.37468,123.56986Zm-10.17036,24.3007-3.38753-1.51516-6.39437-22.174,3.70535,1.6568,4.50957,15.81284,4.57312-11.7503,3.40895,1.52415Z"/><circle class="cls-7" cx="221.75" cy="44.62448" r="3"/><circle class="cls-7" cx="263.65601" cy="117.12224" r="3"/><circle class="cls-7" cx="288.41667" cy="204.12167" r="3"/><circle class="cls-8" cx="178.8334" cy="13" r="1.5"/><circle class="cls-8" cx="115.38869" cy="31" r="1.5"/><circle class="cls-8" cx="31.91667" cy="49.29444" r="1.5"/><circle class="cls-8" cx="24.41667" cy="115.06541" r="1.5"/><circle class="cls-8" cx="19.9163" cy="179.1026" r="1.5"/><circle class="cls-8" cx="37.8775" cy="232.33333" r="1.5"/><circle class="cls-8" cx="45.78617" cy="261.33333" r="1.5"/><circle class="cls-8" cx="104.45617" cy="256.82859" r="1.5"/><circle class="cls-8" cx="167.41665" cy="271.83333" r="1.5"/><circle class="cls-8" cx="212.27165" cy="245.16667" r="1.5"/><circle class="cls-6" cx="272.41667" cy="243.66667" r="1.5"/><circle class="cls-8" cx="268.64536" cy="192.97617" r="1.5"/><circle class="cls-6" cx="280.91667" cy="163.2883" r="1.5"/><circle class="cls-6" cx="180.3334" cy="261.33333" r="1.5"/><circle class="cls-6" cx="124.41667" cy="284.5" r="1.5"/><circle class="cls-6" cx="9.25" cy="224.41825" r="1.5"/><circle class="cls-6" cx="9.25" cy="68.40206" r="1.5"/><circle class="cls-6" cx="66.30078" cy="47.79444" r="1.5"/><circle class="cls-6" cx="132.67287" cy="1.5" r="1.5"/><circle class="cls-6" cx="183.3334" cy="34.85049" r="1.5"/><circle class="cls-6" cx="255.08333" cy="49.12448" r="1.5"/><circle class="cls-6" cx="277.08333" cy="85.34513" r="1.5"/><circle class="cls-8" cx="278.58333" cy="140.38998" r="1.5"/><circle class="cls-7" cx="83.14724" cy="15" r="3"/><circle class="cls-7" cx="3" cy="140.38998" r="3"/><circle class="cls-7" cx="79.08333" cy="264.33333" r="3"/><circle class="cls-7" cx="243.94349" cy="239.19692" r="3"/><circle class="cls-8" cx="293.5" cy="124.5638" r="1.5"/></g></svg>