<svg xmlns="http://www.w3.org/2000/svg" xmlns:xlink="http://www.w3.org/1999/xlink" viewBox="0 0 295 286"><defs><style>.cls-1{fill:url(#Degradado_sin_nombre_193);}.cls-2{fill:#8a4365;}.cls-3{fill:url(#Degradado_sin_nombre_191);}.cls-4{fill:#ff8889;}.cls-5{fill:#e7e9ea;}.cls-6{fill:#ff9e9f;}.cls-7{fill:#793e57;}.cls-8{fill:#522654;}</style><linearGradient id="Degradado_sin_nombre_193" x1="147.5" y1="210.42027" x2="147.5" y2="133.30463" gradientUnits="userSpaceOnUse"><stop offset="0" stop-color="#7b3b59"/><stop offset="1" stop-color="#834061"/></linearGradient><linearGradient id="Degradado_sin_nombre_191" x1="172.2834" y1="215.99363" x2="264.65653" y2="52.84109" gradientUnits="userSpaceOnUse"><stop offset="0" stop-color="#733753"/><stop offset="1" stop-color="#793e57"/></linearGradient></defs><title>cubigram en cube</title><g id="plant_5" data-name="plant 5"><polygon class="cls-1" points="147.584 29.087 253 76.135 253 209.721 147.584 256.913 42 209.721 42 76.135 147.584 29.087"/><polygon class="cls-2" points="253 76.135 147.584 29.087 42 76.135 147.584 123.183 253 76.135"/><polygon class="cls-3" points="147.584 123.183 147.584 256.913 253 209.865 253 76.135 147.584 123.183"/><path class="cls-4" d="M177.14721,156.9653l-24.544,10.95394a4.61282,4.61282,0,0,0-2.73306,4.21247v31.69088a2.8076,2.8076,0,0,0,3.95183,2.56388l23.79785-10.62091a4.24506,4.24506,0,0,0,2.51491-3.87644V158.90356A2.12246,2.12246,0,0,0,177.14721,156.9653Zm-6.302,32.10958-.02073-11.57964-4.30989,11.44146-1.5276.67087-4.28986-7.41346V193.5347l-3.18025,1.39771V175.618l2.80371-1.23258,5.48236,9.59327,5.39808-14.37437,2.78367-1.2236.04146,19.29641Z"/><path class="cls-4" d="M212.36389,141.24772l-24.544,10.954a4.613,4.613,0,0,0-2.73306,4.21247V188.105a2.80759,2.80759,0,0,0,3.95183,2.56388L212.83647,180.048a4.24462,4.24462,0,0,0,2.51491-3.87634V143.186A2.12252,2.12252,0,0,0,212.36389,141.24772ZM206.96806,172.842l-11.34128,4.98422V158.51181l11.06906-4.86469v3.58651l-7.70018,3.38408v4.19451l6.79993-2.98819v3.47666l-6.79993,2.98818v4.46949l7.9724-3.5036Z"/><path class="cls-5" d="M239.06425,154.43821l-6.80062,2.98819-1.29684,4.70923-3.47389,1.52622,6.5284-22.183,3.34815-1.47164,6.54913,16.436-3.5568,1.56353Zm-1.06746-2.926-2.32214-6.37294-2.32284,8.41527Z"/><path class="cls-5" d="M172.48823,213.4923v19.31506l-3.39029,1.4896v-7.9192l-6.65415,2.92393v7.9192l-3.3896,1.4896V219.39612l3.3896-1.4896v7.6152l6.65415-2.92462v-7.6152Z"/><path class="cls-5" d="M167.466,146.10585l-3.3896,1.4896V128.28108l3.3896-1.4896Z"/><path class="cls-5" d="M207.49108,124.51562v3.64248l-12.806,5.62814v-2.89767l8.03459-16.30684-7.86739,3.45731V114.398l12.32513-5.41673v2.89767l-8.01523,16.29717Z"/><path class="cls-5" d="M232.21112,116.84446a4.69221,4.69221,0,0,1-2.60542-.46913l1.15175-3.87255a4.58348,4.58348,0,0,0,2.23854.4788,6.63169,6.63169,0,0,0,2.59437-.588,5.49121,5.49121,0,0,0,2.13491-1.50411,2.87169,2.87169,0,0,0,.69022-1.80742,1.08026,1.08026,0,0,0-.40833-.9652,1.80948,1.80948,0,0,0-1.046-.27152,14.61377,14.61377,0,0,0-1.72658.1513,16.04352,16.04352,0,0,1-2.74084.15684,2.60818,2.60818,0,0,1-1.83091-.87953,4.00008,4.00008,0,0,1-.76414-2.754,8.70527,8.70527,0,0,1,.69091-3.353A9.61577,9.61577,0,0,1,232.672,98.087a10.814,10.814,0,0,1,3.4-2.29451,9.34293,9.34293,0,0,1,2.74084-.76345,4.97418,4.97418,0,0,1,2.34356.23905l-1.046,3.85389a5.65168,5.65168,0,0,0-4.05979.266,5.13945,5.13945,0,0,0-2.10243,1.53174,3.11848,3.11848,0,0,0-.68055,1.89862q0,.9949.78487,1.13171a8.17334,8.17334,0,0,0,2.39608-.10156,16.16777,16.16777,0,0,1,2.74083-.15546,2.65162,2.65162,0,0,1,1.8316.85051,3.8968,3.8968,0,0,1,.76346,2.727,8.56289,8.56289,0,0,1-.70127,3.33018,9.7332,9.7332,0,0,1-2.10244,3.08975,10.934,10.934,0,0,1-3.411,2.29934A9.72542,9.72542,0,0,1,232.21112,116.84446Z"/><path class="cls-5" d="M208.924,197.1219l-6.33978,22.1008-3.34815,1.47095L192.917,204.15674l3.66182-1.60913,4.45705,11.83666,4.51924-15.78175Z"/><path class="cls-5" d="M231.58377,205.352a4.61131,4.61131,0,0,1-2.86658-2.31317,9.34842,9.34842,0,0,1-1.03567-4.66363,15.60022,15.60022,0,0,1,1.03567-5.57357,15.81311,15.81311,0,0,1,2.86658-4.83222,11.6797,11.6797,0,0,1,4.11161-3.10356,6.10749,6.10749,0,0,1,4.10123-.50575,4.66944,4.66944,0,0,1,2.86659,2.31317,9.24986,9.24986,0,0,1,1.046,4.6588,15.49487,15.49487,0,0,1-1.046,5.5784,16.03111,16.03111,0,0,1-2.86659,4.83222,11.61086,11.61086,0,0,1-4.10123,3.09942A6.15338,6.15338,0,0,1,231.58377,205.352Zm6.45517-6.13389a9.394,9.394,0,0,0,1.64229-2.915,10.21109,10.21109,0,0,0,.59695-3.46353,6.33743,6.33743,0,0,0-.59695-2.93774,2.7796,2.7796,0,0,0-1.64229-1.47233,3.29869,3.29869,0,0,0-2.34356.24389,6.46214,6.46214,0,0,0-2.34357,1.8164,9.40123,9.40123,0,0,0-1.643,2.915,10.22631,10.22631,0,0,0-.59626,3.46283,6.34765,6.34765,0,0,0,.59626,2.93844,2.78486,2.78486,0,0,0,1.643,1.47233,3.29906,3.29906,0,0,0,2.34357-.24389A6.46792,6.46792,0,0,0,238.03894,199.21812Z"/><path class="cls-6" d="M103.67367,204.89463l-6.41509,16.44571-3.38753-1.51516-6.39437-22.17474,3.70535,1.65749,4.50956,15.81284,4.57313-11.751Z"/><path class="cls-6" d="M66.87791,199.16284a7.84286,7.84286,0,0,1,.71993,3.34331q0,2.5391-1.51378,3.22724-1.51516.68814-4.41422-.60869l-7.66495-3.4276V182.382l7.24073,3.239a10.06627,10.06627,0,0,1,4.16135,3.21273,7.21808,7.21808,0,0,1,1.44953,4.31818,4.419,4.419,0,0,1-.51819,2.27862,2.2275,2.2275,0,0,1-1.45091,1.08957A7.74634,7.74634,0,0,1,66.87791,199.16284ZM57.41384,187.273v4.5524l3.40894,1.52483a2.52168,2.52168,0,0,0,1.92695.28259q.655-.286.65567-1.41775a3.19179,3.19179,0,0,0-.65567-1.98982,4.85287,4.85287,0,0,0-1.92695-1.42742Zm6.04476,14.706q.68712-.27153.68815-1.48546,0-2.40021-2.73116-3.62243l-4.00175-1.78946v4.77349l4.00175,1.78946A2.82125,2.82125,0,0,0,63.4586,201.979Z"/><path class="cls-6" d="M139.17051,241.96329a2.77276,2.77276,0,0,1-1.74731.98455,4.09342,4.09342,0,0,1-2.25443-.40142,8.68666,8.68666,0,0,1-2.98542-2.25928,27.20848,27.20848,0,0,1-3.049-4.63323,13.23376,13.23376,0,0,1-3.58928-3.288,16.24883,16.24883,0,0,1-2.45549-4.589,15.52673,15.52673,0,0,1-.87884-5.12516,9.18858,9.18858,0,0,1,1.04811-4.64982A4.57544,4.57544,0,0,1,126.16,215.726a6.33159,6.33159,0,0,1,4.16.56378,11.96573,11.96573,0,0,1,4.1496,3.15331,16.2698,16.2698,0,0,1,2.90113,4.87022,15.45678,15.45678,0,0,1,1.05847,5.59222,8.4538,8.4538,0,0,1-1.45022,5.25575,4.4125,4.4125,0,0,1-3.84284,1.813,7.83275,7.83275,0,0,0,1.02669,1.49443,3.29924,3.29924,0,0,0,1.06953.79524,2.04166,2.04166,0,0,0,2.414-.35513Zm-12.88407-14.288a9.53022,9.53022,0,0,0,1.66233,2.937,6.65528,6.65528,0,0,0,2.3712,1.8468,3.38315,3.38315,0,0,0,2.3712.27429,2.75021,2.75021,0,0,0,1.66163-1.45021,6.22783,6.22783,0,0,0,.60386-2.93084,10.16265,10.16265,0,0,0-.60386-3.47044,9.50653,9.50653,0,0,0-1.66163-2.937,6.65178,6.65178,0,0,0-2.3712-1.8475,3.38614,3.38614,0,0,0-2.3712-.2736,2.7511,2.7511,0,0,0-1.66233,1.45022,6.24511,6.24511,0,0,0-.60317,2.93084A10.19239,10.19239,0,0,0,126.28644,227.67529Z"/><path class="cls-6" d="M56.821,158.21265a14.02046,14.02046,0,0,1-2.63582-2.79335l1.16418-2.84516a14.134,14.134,0,0,0,2.26549,2.47553,10.72646,10.72646,0,0,0,2.62546,1.72589,3.169,3.169,0,0,0,2.15978.40073,1.11649,1.11649,0,0,0,.69851-1.19113,2.41525,2.41525,0,0,0-.41316-1.33,5.75218,5.75218,0,0,0-1.05779-1.20495q-.64668-.56377-1.74731-1.388a35.7716,35.7716,0,0,1-2.77331-2.289,9.04359,9.04359,0,0,1-1.853-2.51214,7.41014,7.41014,0,0,1-.77244-3.43589,4.86609,4.86609,0,0,1,.69851-2.736,2.787,2.787,0,0,1,2.10658-1.2243,6.72635,6.72635,0,0,1,3.44073.73859,14.21382,14.21382,0,0,1,5.14451,4.01211L64.81348,147.536A12.01353,12.01353,0,0,0,60.706,144.181a2.85037,2.85037,0,0,0-2.12731-.34407,1.25444,1.25444,0,0,0-.68814,1.29269,2.6114,2.6114,0,0,0,.79385,1.83091,18.79829,18.79829,0,0,0,2.42371,2.03611,35.95788,35.95788,0,0,1,2.774,2.289,9.184,9.184,0,0,1,1.85233,2.48382,7.2489,7.2489,0,0,1,.77313,3.409,4.73423,4.73423,0,0,1-.70957,2.70353,2.81979,2.81979,0,0,1-2.128,1.21462,6.79128,6.79128,0,0,1-3.45109-.74342A14.90976,14.90976,0,0,1,56.821,158.21265Z"/><path class="cls-6" d="M127.31313,189.18473a15.97573,15.97573,0,0,1-2.879-4.84673,15.60885,15.60885,0,0,1-1.04811-5.615,9.24879,9.24879,0,0,1,1.04811-4.67745,4.55308,4.55308,0,0,1,2.879-2.271,6.26045,6.26045,0,0,1,4.11851.55894,11.40647,11.40647,0,0,1,3.48287,2.4403,14.32712,14.32712,0,0,1,2.61509,3.70811l-2.20192,1.6644a8.08078,8.08078,0,0,0-3.72677-3.9299,3.59532,3.59532,0,0,0-2.45618-.31229,2.72118,2.72118,0,0,0-1.68306,1.44124,6.23867,6.23867,0,0,0-.60316,2.93084,10.177,10.177,0,0,0,.60316,3.47113,9.432,9.432,0,0,0,1.68306,2.946,6.94281,6.94281,0,0,0,2.45618,1.8848,2.98351,2.98351,0,0,0,3.72677-.6232l2.20192,3.6328a3.99576,3.99576,0,0,1-2.62614,1.39219,6.707,6.707,0,0,1-3.49324-.67917A11.856,11.856,0,0,1,127.31313,189.18473Z"/><path class="cls-6" d="M93.98781,115.24155V120.346l6.85935,3.06832v3.58651l-6.85935-3.06763v7.03553l-3.43036-1.53382V110.11984l11.20033,5.00978v3.5872Z"/><path class="cls-6" d="M58.63122,95.543l3.43037,1.53382v19.31506l-3.43037-1.53382Z"/><path class="cls-4" d="M132.65662,133.02141a6.5105,6.5105,0,0,0-2.33665-1.8316,3.28879,3.28879,0,0,0-2.33666-.25909,2.7524,2.7524,0,0,0-1.63814,1.46127,6.34667,6.34667,0,0,0-.59488,2.935,10.2914,10.2914,0,0,0,.59488,3.467,9.49094,9.49094,0,0,0,1.63814,2.92531,6.49713,6.49713,0,0,0,2.33666,1.8316,3.28485,3.28485,0,0,0,2.33665.25909,2.7524,2.7524,0,0,0,1.63815-1.46128,6.33456,6.33456,0,0,0,.59418-2.935,10.27,10.27,0,0,0-.59418-3.46629A9.49425,9.49425,0,0,0,132.65662,133.02141Z"/><path class="cls-4" d="M142.18461,123.48461l-24.544-10.95384a2.12248,2.12248,0,0,0-2.98749,1.93817v32.98565A4.24474,4.24474,0,0,0,117.168,151.331l23.79785,10.62083a2.80753,2.80753,0,0,0,3.95183-2.56379v-31.6908A4.61308,4.61308,0,0,0,142.18461,123.48461ZM137.26775,145.596a4.6115,4.6115,0,0,1-2.85829,2.29451,6.08229,6.08229,0,0,1-4.08949-.532,11.7645,11.7645,0,0,1-4.09986-3.12982,15.96608,15.96608,0,0,1-2.85829-4.85157,15.6902,15.6902,0,0,1-1.03291-5.58047,9.33452,9.33452,0,0,1,1.03291-4.65673,4.55882,4.55882,0,0,1,2.85829-2.29451,6.13653,6.13653,0,0,1,4.09986.53615,11.70307,11.70307,0,0,1,4.08949,3.12636,16.18529,16.18529,0,0,1,2.85829,4.85087,15.59456,15.59456,0,0,1,1.04327,5.58531A9.22858,9.22858,0,0,1,137.26775,145.596Z"/><path class="cls-4" d="M175.37416,106.06636,150.46723,94.95041a7.075,7.075,0,0,0-5.76685.00008l-24.90607,11.11613a1.415,1.415,0,0,0,0,2.58435l24.90676,11.11586a7.07536,7.07536,0,0,0,5.767-.00008l24.90607-11.11613A1.415,1.415,0,0,0,175.37416,106.06636Zm-19.246,4.52468a8.5275,8.5275,0,0,1-2.99578,1.04258,26.16779,26.16779,0,0,1-4.85848.38484,37.31646,37.31646,0,0,1-4.78454-.29848,19.72133,19.72133,0,0,1-3.71088-.77658l1.63953-1.61949a19.18443,19.18443,0,0,0,3.18924.70335,25.97467,25.97467,0,0,0,3.69636.26531,12.36686,12.36686,0,0,0,3.0407-.27222q.98351-.27153.98385-.72338,0-.33165-.58175-.55066a7.32579,7.32579,0,0,0-1.49029-.35167q-.90991-.13266-2.45894-.29226-2.38572-.25183-3.905-.50436a8.89169,8.89169,0,0,1-2.60818-.80975,1.67107,1.67107,0,0,1-1.08819-1.48683,1.821,1.821,0,0,1,.98386-1.4668,8.33025,8.33025,0,0,1,2.96607-1.04189,25.9154,25.9154,0,0,1,4.84328-.38484,35.43536,35.43536,0,0,1,3.905.21211,21.3973,21.3973,0,0,1,3.33847.61076l-1.49029,1.63262a23.55656,23.55656,0,0,0-5.78291-.7296,11.26316,11.26316,0,0,0-2.99579.29156q-.969.29226-.96865.77037,0,.47777,1.11789.70956,1.11823.23319,3.41309.45808,2.38467.25287,3.905.50436a9.2047,9.2047,0,0,1,2.60818.79662,1.64781,1.64781,0,0,1,1.08819,1.47371A1.81172,1.81172,0,0,1,156.12819,110.591Z"/><path class="cls-6" d="M106.55061,86.88456h4.82877v7.5392h10.46313v1.75215h-15.2919Z"/><path class="cls-6" d="M76.86846,76.961l-2.80233,1.301V80.6111h-4.799V71.31976h4.799v4.34029l9.24092-4.34029H88.672l-8.644,4.14131,9.15109,5.15H83.54541Z"/><path class="cls-4" d="M140.2986,59.10336l-24.90676-11.116a7.07567,7.07567,0,0,0-5.767.00009L84.71857,59.10362a1.41509,1.41509,0,0,0,.00018,2.58434l24.90676,11.11587a7.07532,7.07532,0,0,0,5.767-.00009l24.90624-11.11612A1.415,1.415,0,0,0,140.2986,59.10336Zm-17.6042,6.06109h-5.18735l-4.5904-6.29212L108.177,65.16445h-5.15695l-6.8552-9.292h5.00771l4.70923,6.53116,4.91928-6.53116h4.47018l4.77,6.58436,4.85847-6.58436h4.6208Z"/><polygon class="cls-4" points="144.643 45.858 151.26 45.858 147.951 42.3 144.643 45.858"/><path class="cls-4" d="M175.37381,43.449,150.46705,32.33313a7.07419,7.07419,0,0,0-5.76684,0L119.794,43.44934a1.41492,1.41492,0,0,0,0,2.58417l24.90694,11.116a7.07462,7.07462,0,0,0,5.76684-.00009l24.90607-11.11613A1.41489,1.41489,0,0,0,175.37381,43.449ZM154.62823,49.4815l-1.84818-1.9912h-9.68793l-1.8475,1.9912h-4.94829l9.30033-9.29135H150.366l9.32935,9.29135Z"/><path class="cls-6" d="M180.89936,57.5983v2.45549h9.65822v1.72589h-9.65822v3.38477H176.0706v-9.292h15.76862V57.5983Z"/><path class="cls-4" d="M175.37416,74.75772l-24.90693-11.116a7.075,7.075,0,0,0-5.767.00008L119.79414,74.758a1.415,1.415,0,0,0,0,2.58426L144.7009,88.45811a7.07469,7.07469,0,0,0,5.767,0l24.90624-11.11622A1.415,1.415,0,0,0,175.37416,74.75772Zm-18.763,5.97222H140.45491V71.43721h15.76932V73.1631H145.254v2.01746h9.68793v1.67338H145.254v2.15011h11.35717Z"/><path class="cls-6" d="M188.20227,91.5026h4.41146v3.7696a21.54686,21.54686,0,0,1-3.93473.87607,33.29427,33.29427,0,0,1-4.50127.30538,25.28551,25.28551,0,0,1-5.84233-.61767,11.1492,11.1492,0,0,1-4.06877-1.71207,2.81479,2.81479,0,0,1,0-4.95106,11.16318,11.16318,0,0,1,4.09848-1.71207,25.82126,25.82126,0,0,1,5.90243-.61767,27.60651,27.60651,0,0,1,4.978.41178,13.59575,13.59575,0,0,1,3.75578,1.19458l-3.10011,1.27473a12.62763,12.62763,0,0,0-5.39531-1.0488,15.26621,15.26621,0,0,0-3.54713.37171,6.27051,6.27051,0,0,0-2.41473,1.04811,1.81587,1.81587,0,0,0,0,3.0932,6.33844,6.33844,0,0,0,2.39953,1.055,14.69585,14.69585,0,0,0,3.50291.37793,16.23812,16.23812,0,0,0,3.75578-.398Z"/><path class="cls-6" d="M229.32174,71.43721l-9.03226,9.292h-4.76935l-9.00185-9.292h5.21636l6.34877,6.63757,6.43858-6.63757Z"/><path class="cls-6" d="M101.88421,175.36793v3.5872l-11.476-5.13207V154.508l11.201,5.00909v3.5872L93.81716,159.62v4.19382l6.88145,3.07731v3.47666l-6.88145-3.07731v4.47018Z"/><circle class="cls-7" cx="221.75" cy="44.62448" r="3"/><circle class="cls-7" cx="263.65601" cy="117.12224" r="3"/><circle class="cls-7" cx="288.41667" cy="204.12167" r="3"/><circle class="cls-8" cx="178.8334" cy="13" r="1.5"/><circle class="cls-8" cx="115.38869" cy="31" r="1.5"/><circle class="cls-8" cx="31.91667" cy="49.29444" r="1.5"/><circle class="cls-8" cx="24.41667" cy="115.06541" r="1.5"/><circle class="cls-8" cx="19.9163" cy="179.1026" r="1.5"/><circle class="cls-8" cx="37.8775" cy="232.33333" r="1.5"/><circle class="cls-8" cx="45.78617" cy="261.33333" r="1.5"/><circle class="cls-8" cx="104.45617" cy="256.82859" r="1.5"/><circle class="cls-8" cx="167.41665" cy="271.83333" r="1.5"/><circle class="cls-8" cx="212.27165" cy="245.16667" r="1.5"/><circle class="cls-5" cx="272.41667" cy="243.66667" r="1.5"/><circle class="cls-8" cx="268.64536" cy="192.97617" r="1.5"/><circle class="cls-5" cx="280.91667" cy="163.2883" r="1.5"/><circle class="cls-5" cx="180.3334" cy="261.33333" r="1.5"/><circle class="cls-5" cx="124.41667" cy="284.5" r="1.5"/><circle class="cls-5" cx="9.25" cy="224.41825" r="1.5"/><circle class="cls-5" cx="9.25" cy="68.40206" r="1.5"/><circle class="cls-5" cx="66.30078" cy="47.79444" r="1.5"/><circle class="cls-5" cx="132.67287" cy="1.5" r="1.5"/><circle class="cls-5" cx="183.3334" cy="34.85049" r="1.5"/><circle class="cls-5" cx="255.08333" cy="49.12448" r="1.5"/><circle class="cls-5" cx="277.08333" cy="85.34513" r="1.5"/><circle class="cls-8" cx="278.58333" cy="140.38998" r="1.5"/><circle class="cls-7" cx="83.14724" cy="15" r="3"/><circle class="cls-7" cx="3" cy="140.38998" r="3"/><circle class="cls-7" cx="79.08333" cy="264.33333" r="3"/><circle class="cls-7" cx="243.94349" cy="239.19692" r="3"/><circle class="cls-8" cx="293.5" cy="124.5638" r="1.5"/></g></svg>